<?xml version="1.0" encoding="utf-8"?>
<!-- Generator: Adobe Illustrator 21.0.0, SVG Export Plug-In . SVG Version: 6.00 Build 0)  -->
<svg version="1.1" id="Layer_1" xmlns="http://www.w3.org/2000/svg" xmlns:xlink="http://www.w3.org/1999/xlink" x="0px" y="0px"
	 viewBox="0 0 1200 1200" style="enable-background:new 0 0 1200 1200;" xml:space="preserve">
<style type="text/css">
	.st0{fill:none;}
	.st1{fill:#434343;}
	.st2{fill:#E5B1CD;}
	.st3{fill:#1F1F1F;}
	.st4{fill:#1D1E1E;}
	.st5{fill:#191A1A;}
	.st6{fill:#F2F1F1;}
	.st7{fill:#F9F7F7;}
	.st8{fill:#F9F9F9;}
	.st9{fill:#161616;}
</style>
<title>Artboard 1</title>
<path class="st0" d="M600.7,0.1c199.1,0,398.1,0,597.2-0.1c2,0,3.6,1.6,3.6,3.5c0,0,0,0,0,0c-0.1,397.8-0.1,795.6,0,1193.4
	c0,2-1.6,3.6-3.5,3.6c0,0,0,0,0,0c-398.1-0.1-796.2-0.1-1194.3,0c-2,0-3.6-1.6-3.6-3.5c0,0,0,0,0,0C0.1,797.9,0.1,399,0,0
	C200.2,0.1,400.5,0.1,600.7,0.1z M466.7,359.7c1.3,1,1.5-0.5,1.9-1c4.9-6.3,8.7-13.4,11.2-20.9c4.4-14,0.9-32.3-8-41.8
	C479.9,319.5,475.6,339,466.7,359.7l-0.1,0.9C466.7,360.3,466.7,360,466.7,359.7L466.7,359.7z M310,271.8
	c-5.7,2.2-8.8,6.8-10.7,12.3c-4.5,13.2,0.6,31.3,11.4,40.9c3.9,3.5,8.8,5.5,14,5.8c-4.6-3-8.7-6.7-12.1-11
	c-11.3-14.4-13.7-33.8-2.1-47.4c0.2-0.3,0.9-0.6,0.5-1S310.1,271.2,310,271.8z M314.4,442.9l-0.8-1c0.9-5.6,0.4-10.9-4.4-15.7
	c8.1,0.9,16.3,0.3,24.2-1.9c12.7-3.4,23.5-9.8,31.8-20.3c1.8-2.3,1-2.9-1.1-3.5c-2.9-0.9-5.8-2-8.8-2.8c-15.9-4.2-30.5-2.5-42.6,9.9
	l-0.6,1c0.5,0.2,0.9,0.1,1.1-0.5c3.7-0.9,7.4-2.1,11.3-0.6c3.8,1.5,8,1.6,11.9,0.3c3.1-0.9,6.7-2.2,9.2,0.9c1.4,1.7-2.2,6.3-6,8
	c-5.7,2.6-11.7,2.7-17.8,1.7c-8.5-1.4-16.8-3.2-25.6-2c-12.6,1.7-22.4,11.9-22.9,24.6c-0.4,10.5,7.9,18.4,18.1,16.8
	c-4.4-3.5-7.8-7.6-9-13.1c-1.1-5.1,2.4-11.9,7.2-14.2c4-1.9,9.6-0.2,13,3.9c4.3,5.1,4.5,10.3,0.5,15.8c-6.6,8.9-13.5,17.5-18.2,27.6
	c-4.2,9-6.8,18.3-6.3,28.3c0.5-0.8,1-1.7,1.2-2.7c3.6-11.2,8-22.2,14.4-32.2c10.3-16,24.8-26.9,41-36.1
	c11.9-6.8,24.5-12.4,35.5-20.8c6.4-4.8,11.7-10.5,13.5-19.8c-4.1,5.9-8,10.7-12.9,14.5c-6.6,5.2-14.2,8.7-21.8,11.9
	C336.7,426.7,324.2,432.6,314.4,442.9L314.4,442.9z M894.9,876.4l0.9,0.7c-5,5.7-10.9,10.6-17.3,14.7c-30,19.3-62.9,26.1-98.1,23
	c-20.6-1.8-36-11-42.5-32c-0.3-1.2-1.4-2.1-2.7-2.2c-12.8-2.7-20.8-12.5-21-25.8c-0.2-16,6.3-28.9,18.7-38.8c3.3-2.7,6.9-5,11.6-6.1
	c-2.4,4.6-3.6,9.7-3.3,14.9c0.5,14.2,14.7,25.4,27.9,22c9.4-2.4,15.2-8.6,17.4-17.8c2.5-10.1,0.2-19.5-8-26.2
	c-13.5-11.2-28.9-12.6-44.8-6.2c-17.1,6.9-26.3,21.1-31.9,37.9c-4.3,12.8-5.7,26-6.4,39.9c-1.3-6.8-2.2-13.1-3.8-19.3
	c-2.9-11.8-6.3-23.6-13.4-33.7c-12-17.1-33.4-19.9-48.1-6.2c-6.1,5.6-9.6,12.9-12.7,20.5c-0.5,1.3-0.3,3.1-2,3.9
	c-2.3-7.1-5.6-13.8-10-19.9c-10.9-14.6-29.7-17.3-44.2-6.4c-5.4,4.2-9.7,9.6-12.4,15.9c-5.2,11.4-8.9,23.5-11,35.9
	c-0.3,1.9,0.2,4.4-2,6c-0.6-15.2-3-29.8-8.8-43.7c-10-23.8-31.2-37.9-55.2-33.5c-15.3,2.8-28.3,13.2-27.6,29.8
	c0.5,11.4,8.8,21.8,19.6,23.5c11.1,1.7,21.8-5.3,25.4-16.7c2.2-7,1.1-13.6-1.8-20c1.2-0.8,1.9,0,2.7,0.4c17.1,7.6,28.3,26.3,27,45.1
	c-0.9,13.3-8.1,21.9-20.8,24.6c-1.7,0.4-2.2,1.1-2.7,2.6c-2.2,6.8-5.5,13-10.6,18.1c-10.2,10.2-23.2,13.3-36.9,14.1
	c-15.3,0.9-30.6-0.3-45.6-3.8c-22.4-5.2-43-14.1-60.2-29.9c-1-0.9-2.6-1.6-2.5-3.4c0.5-0.1,0.7-0.3,0.9-0.2c0.9,0.5,1.7,1.1,2.5,1.8
	c15.4,11.5,32.3,19,52,17.7c12.2-0.8,23.4-4.5,30.9-14.8c9.6-13.3,10.5-27.9,3.8-42.7s-23.1-25.7-39.4-26.2c2.2,2,4.3,3.6,6.2,5.5
	c10.5,10.3,17.5,22.1,15.7,37.6c-1.5,12.8-16,26.3-28.4,26.4c25.3-13.8,22.7-36.8,12.2-47.4c0.4,1.9,0.7,3.6,1.1,5.4
	c3.7,17.2-7.4,31.1-25,31.6c-18.8,0.6-33.2-7.2-44.3-21.9c-13-17.3-18.8-37.5-23.1-58.9c14.5,7.5,29.5,9.1,44.9,6.4
	c15-2.7,28.4-8.7,38.3-20.9c9-11.2,9.3-27.1,0.6-38.7c1.3,4.2,2.1,8.6,2.4,13c0.7,11-2,20.8-10,28.9l-0.6-0.9
	c7.9-13.2,7.4-26.5,0.1-39.8c-0.9-1.6-0.5-2.9,0.1-4.3c6.1-13.6,7.3-28.9,3.6-43.4c-3.7-15.3-11.9-27.3-28-31.9
	c-8.7-2.5-17.2-1.5-25.6,1.7c-1,0.4-2.7,2.2-3.3-0.5c-2.3-10.7-2.4-21.3,5.3-29.9c15.7-17.4,34.2-19.9,53.7-7.4
	c5.3,3.4,9.2,8.1,10.8,14.5c0.9,3.6,0,7.1-0.4,10.7c17.1-6,27.8,2.3,36.3,16.6c0-0.7,0-1.4,0-2.2c-2.9-19.5-12.4-35.2-28.1-47
	c-15.1-11.4-32-16.8-51-11.8s-40.6,25.8-34.5,54.8c1.1,5.5,0.6,9.1-4.6,11.7c-1.2,0.7-2.2,1.6-3.1,2.7
	c-18.3,17.5-26.2,39.6-27.6,64.2c-1.1,21,0.6,42,5.1,62.6c12.6,59.9,45,105.5,97.7,136.6c23.1,14,50.1,20.2,77,17.9
	c19.9-1.6,39-7.1,57.2-15.2c3.5-1.5,7.4-1.9,11.2-1.3c8.4,1,16.7,0.6,24.2-4.1c6.4-4.1,9.4-10,8.8-17.6c-0.5-6.8-5.6-12.1-11.3-12
	c-3.7,0.1-7.1,3.2-7.9,7.2c-0.8,3.8,0.8,7.8,3.7,8.9c4,1.5,6.6-0.5,8.5-3.9c0,0,0.2,0,0.3,0c1.5,7-0.7,11.3-7.2,12.8
	c-11.3,2.5-20.9-3.5-19.1-17.1c2-15.5,9.3-28.4,20.2-39.3c1.4-1.4,2.2-2.7,1.8-4.7c-0.9-5.1-0.5-10.2,0-15.4
	c1.3-12.5,9.2-18.9,21.6-16.9c2,0.3,2.5-0.3,2.9-1.8c1-3.9,2.7-7.5,5-10.8c4.6-6.3,11-7.4,17.4-3c8.1,5.6,13,18.8,10.8,28.4
	c-2.3,9.8-9,15.2-17.9,18.4c-2.1,0.8-3.3,1.7-3.9,3.9c-1.5,6.2-5.7,9.3-12,10.3c-3.5,0.4-7,0.6-10.5,0.5c7.1,6.3,14.6,8.8,22.9,7.7
	c13.3-1.9,21.8-10.2,26.8-22.6c11.5,27.1,38.7,27,49.5,14.9c-2.2,0-4.3,0.1-6.3,0c-6.7-0.6-13-1.9-15.2-9.4c-1-3.4-2.9-4.8-6-6
	c-9.8-3.7-16.2-10.6-16.8-21.3c-0.5-10,3.1-18.7,11.4-24.9c5.8-4.3,11.6-3.5,16.4,1.9c2.7,3.3,4.7,7.1,5.7,11.2
	c0.6,2.2,1.2,2.7,3.6,2.3c11.2-1.8,18.5,3.8,20.7,15c1.1,5.8,0.8,11.6,0.5,17.3c-0.2,2,0.5,4,2,5.3c10,9.8,16.8,22.3,19.5,36
	c2.7,12.9-3.9,21.3-16,20.6c-8-0.5-12.4-6.7-9.5-13.6c2.2,3.8,3.8,4.9,6.8,4.5s4.5-2.3,5.3-4.9c1-3.2-0.4-7.5-3.4-10s-6-2-9-0.5
	c-2.6,1.4-4.6,3.8-5.6,6.6c-3.6,9,0.7,18.8,10.2,23.3c7.1,3.3,14.6,3.7,22.2,2.7c3.3-0.6,6.6-0.2,9.7,1.1
	c17.6,7.5,35.7,13.2,54.9,15c19.8,2,39.4,0.7,57.9-6.9c40-16.3,71.5-43.2,94.1-80.1c16.6-27.1,25.8-56.7,29.4-88.2
	c2.1-18.6,3.4-37.2-0.1-55.8c-4.3-22.6-14.1-42-33.2-55.8c-1.6-1.1-1.6-2.1-1.2-3.8c0.9-3.7,1.5-7.6,1.9-11.4
	c1.9-26.9-23.8-54.3-55.6-49.4c-26.6,4.1-44.6,20.1-54.9,44.8c-3.2,7.6-4,12.3-3.5,16.4c8.6-14.5,20.3-21.1,35.9-15.4
	c-3.1-10.7,0.7-19,9.4-24.7c19.1-12.7,36.2-11,52.9,5c8.4,8.1,10.5,22.3,5.9,33.2c-0.3-0.1-0.7-0.2-1.1-0.4
	c-23.6-9.4-44.9,0.3-53.3,24.2c-5.7,16.4-4.7,32.6,1.8,48.5c0.7,1.7,1.1,3.1,0.1,5c-7.2,13.5-7.7,26.9,0.9,40.1l-0.7,0.9
	c-11.9-12.1-12.2-26.6-8.3-42.2c-8.1,10.3-8.3,26-0.2,36.9c11.2,15,27.2,21.3,45.2,23.2c13.2,1.6,26.6-0.8,38.5-6.9
	c0.1,0.3,0.2,0.6,0.2,1c-0.2,1.4-0.5,2.8-0.8,4.2c-3.7,17.7-9.1,34.7-19.3,49.8c-11.3,16.8-26.5,26.4-47.4,25.6
	c-16.5-0.6-27-12.9-24.8-29.3c0.3-2.4,0.7-4.8,1.1-8.2c-7.4,10-9.4,19.8-4.9,30.5c3.2,7.6,9.1,12.6,16,16.6l-0.7,0.7
	c-2.1-0.6-4.2-1.1-6.2-1.9c-14-5.8-21.4-17.2-20.5-32c0.5-8.6,4.3-16,9.4-22.8c3.6-4.8,8.2-8.8,13.1-13c-23.3,2-41.7,19.3-43.7,40.9
	c-1.2,12.5,4,30.4,19.1,37.9c13,6.5,26.3,6.6,40,3.3S884.2,885,894.9,876.4z M369.9,443.2l0.7,0.9c-3.1,6.3-5.8,12.8-6.9,19.9
	c-1.9,11.2,3,22.5,12.6,27.6c11.7,6.1,24,4.8,37.4,2.5c-7-1.1-12.9-1.8-18.8-2.9c-7.6-1.5-14.9-3.9-20.3-10
	c-2.9-3.2-4.7-6.9-4.7-11.4c0.9,0.9,1.6,1.9,2.3,3c7.8,12.2,22.9,18,36.9,14.8c22.7-5.1,31.3-29.9,29.8-45
	c-2.8,8.8-6.9,16.4-13.1,22.7c-10.2,10.4-23.3,12.7-34.6,6c-6.5-3.8-9.1-9.9-7.9-17.3c1.2-7,4.5-13,8.5-18.7s8.4-11.4,12.4-17.2
	c1.7-2.7,4-5,6.6-6.7c9.5-5.9,18.4-12.6,26.7-20.2c1-1,2.3-1.6,3.7-1.6c3.9-0.1,7.7-0.4,11.6-0.6c23.1-1.2,45.2-6.5,65.4-17.8
	c50.2-28,82.8-70.2,98.3-125.1c0.2,0.5,0.4,1.1,0.5,1.7c1.5,7.8,3.7,15.4,6.7,22.8c8.8,22,22.3,41,37.7,58.7
	c33.9,38.9,76.5,59.5,128.3,60.2c2-0.1,4,0.6,5.5,2c3.3,3.1,6.7,6,10.4,8.7c11.1,8,23,15,29.5,27.8c0.3,0.6,0.7,1.1,1.1,1.6
	c4.4,5.5,8.4,11.4,11,18c1.8,4.7,2.8,9.7,1.2,14.7c-2.8,9-15.9,14.9-26.7,12c-12.5-3.2-19.7-12.3-25.2-23.2
	c-1.4-2.8-2.4-5.8-3.8-9.3c-0.4,10.1,2.9,22.1,7.8,29.7c13.3,20.6,41.4,22.9,56.9,4.5c1.9-2.5,3.7-5.1,5.3-7.8
	c-0.7,9.7-6.7,16.8-17.3,20.6c-8.4,3-17.2,3.8-25.9,5.1c11.2,2.3,22.5,3.5,33.5-1.1c9.6-4,14.6-11.2,15.3-21.6
	c0.6-8.3-1.7-16-5.2-23.4c-0.5-1.1-1.8-2.2-1.2-3.7c1.4-0.4,1.7,0.7,2.2,1.3c8.3,9.7,12.2,22.4,11,35.1
	c-0.9,10.7-5.1,19.9-14.2,25.7c-16.9,10.9-35.7,12.4-53,0.8c-11.8-7.9-19.7-19.1-26.3-31.3c-2.1-3.9-3.9-7.9-6.1-12.4
	c-0.7,11.8,0.7,23.7,4,35c2.7,9.1,7.1,17.3,14.4,23.7c10.6,9.3,23.4,11.6,36.9,11.6c5.7,0,5.7-0.1,4.6,5.6
	c-3.7,19.1,8.2,40.3,26.4,46.9c13.4,4.9,26.1-0.2,31.5-12.9c-4.3,1.4-8.7,2.3-13.2,2.6c-16.3,1-30.3-11.4-31.3-27.6
	c0-0.6-0.1-1.2-0.1-1.8c-0.2-13,6.3-22.2,16.6-29.1c3.8-2.6,7.7-5.2,10.5-9c9.5-12.8,11.8-27,9-42.4c-1.4-7-4.1-13.7-7.8-19.8
	c0.6,0.1,1.2,0.3,1.7,0.5c12.1,7.9,23.9,16.1,34.4,26c11.8,11.2,21.6,23.8,25.1,40.2c1.6,7.3,2.6,14.8-1.9,21.6
	c-4.1,6.3-12.2,10-18.1,8.3c-5.5-1.6-8.7-6.8-8.7-14.3c4.8,2.9,8.2,2.9,11.6-0.1c2.9-2.7,3.8-7,2-10.6c-2.1-4-6.4-6.3-10.9-5.7
	c-3.7,0.7-7,2.9-9.1,6c-4.7,6.6-3.7,13.4-0.6,20.1s8.5,10,15.6,11c4.9,0.6,9.8-0.3,14.2-2.6c-1,2-2.2,3.9-3.4,5.8
	c-5.7,8.5-12.2,16.5-16.8,25.8s-6.6,19-4.7,29.1c3.9,20.6,17,35.5,30.9,50.1c-7-19.8-7.3-38.9,4.8-57c-0.2,2.6-0.6,5.2-1,7.8
	c-1.5,9.8-2.5,19.7,0.4,29.5c3.7,12.4,14.8,20.5,25.7,19c19-2.7,32.5-22.5,28.7-41.5c-2.5-12.2-8.2-22.8-14.5-33.2
	c-4.4-7.2-3.6-13.7,2.8-19.2c1.6-1.4,1.6-2.6,1.2-4.2c-1.8-6.6-0.2-12.4,4.1-17.6c0.8-1,1.6-1.9,2.8-3.2c-1.5,0.4-2.5,0.5-3.5,0.8
	c-10.7,3.7-18.7,11.5-18,25.1c0.5,10.1,4.6,18.8,9.2,27.5c3,5.5,6.4,10.8,8.2,16.9c1.4,5,2.5,10,1.6,16.1
	c-5.2-10.6-7.4-12.7-14.5-14.2c-10.1-2.2-18,4.5-16.7,14.2c0.7,5.3,5.7,9.2,10.6,8.2c5.5-1,8-5,6.8-10.9c-0.4-1.1-0.5-2.3-0.1-3.5
	c5.4,4.6,6.6,10.3,5,16.5c-1.7,6.7-6.5,10.8-13.1,12.1c-6.3,1.3-12-0.4-16-5.9c-2.9-4.2-4.6-9.3-4.7-14.4c-0.6-10.5,2-20.4,5.8-30
	s6.2-19.7,5.2-30.1c-1.2-13.3-2.5-26.6-4.7-39.8c-5.4-31.9-21.4-57.4-46.6-77.3c-14.6-11.5-30.5-20.8-47-29.1
	c-13.4-6.7-21.8-18.1-28.8-30.7c-0.7-1.2-0.8-1.8,0.8-2c1-0.2,2-0.4,3-0.7c20.7-5.5,38.8-15.2,52.8-31.9c3.8-4.5,3.8-4.5,8.7-0.9
	c26.9,19.3,62.8,21,89.5,4.1c17.8-11.4,27.2-27.7,27-49c-0.2-15.8-8.1-28.8-16.8-41.4c0.7,7.2,1.5,14.2-0.6,21.3
	c-2.2,7.5-7.1,12.2-14,15.3c1.3,2.2,2.6,4.1,3.6,6.1c6.4,12.7,1.6,23.6-12,27.6c-0.6,0.3-1.2,0.5-1.8,0.6c-2.2-0.1-2.8,1-3.2,3.1
	c-1.8,9.1-7.9,15-16.2,15.5c-9.8,0.7-19.5,0.4-29.1-2.3c-8.8-2.5-17-6-24.4-11.5c5.7,0.8,11.5,0.6,17.1-0.6
	c17.5-3.4,33-23.3,34.8-43.5c3-32.6-19.3-61-43.8-71c-6.7-2.7-13.7-4.6-22-4.2c15.8,7.9,23,19.6,19.4,36.8
	c9.9-3.5,17.2-1.5,23.5,6.7c12,15.7,14.8,32.5,5.5,50.7c-7,13.7-17.8,19.3-33.4,16.8c1.6-4.9,2.7-9.9,3.3-15
	c1.8-17.2-7.7-33.5-23.5-40.5c-10.9-4.7-22.2-5.1-33.6-2.5c-2.7,0.6-4.4,0.3-6.2-1.9c-2.6-3.2-5.5-6.1-8.7-8.8
	c-10.8-9-23-13.1-36.8-9c-11.2,3.3-18.5,11.4-23.5,21.5c-9.5,19-9.8,39-5.8,59.5c2.3,10.9,6,21.4,11.2,31.2c-0.8,0.1-1.7,0.1-2.5,0
	c-15.2-2.4-30.1-6.2-43.5-14.1c-20.2-11.9-30.4-29.6-29.8-53.3c0.3-12.2,7.5-21.2,19.2-23.6c4.3-0.8,8.7-0.7,13,0.2
	c-8.5-8.1-24.1-8.9-34.2,2.2c-3.9,4.2-6.1,9.4-8.7,14.3l-0.4-0.3c0.3-2.3,0.6-4.6,1.1-6.8c3.1-11.1,8.5-20.4,20.3-24.2
	c10.2-3.3,19.4-0.2,28.1,5.1c5.6,3.4,10.2,8.1,14.9,13.4c0.1-0.8,0.1-1.6,0-2.4c-2.9-12.2-8.5-22.8-18.4-30.8
	c-20.5-16.5-49.9-8.2-57.8,16.5c-4.6,14.4-3.1,28.6,1.8,42.7c4.6,13.3,12.3,24.7,21.5,35.2l-0.7,0.9c-5.6-4.6-10.6-9.9-14.9-15.8
	c-24-34-34.5-71.9-31.8-113.3c1.1-16.4,9-29.6,24.5-37.1c2.1-1,2.3-2.3,2.4-4.2c0.3-11,7.9-20.5,18.6-23.1
	c13.5-3.2,25.4,0.7,35.8,9.3c5.7,4.7,10.1,10.7,12.8,17.6c-4.1-2-7.6-2.9-11.2-2.6c-10.9,0.7-19.2,8-21.8,19.1
	c-2.4,10.2,2.5,21.7,11.5,26.9c12.4,7.2,27.3,1.7,33.7-12.6c5.6-12.5,5.7-25.6,1.1-38.3c-8.7-24-27.9-33.9-51.6-37.3
	c-8.7-1.3-17.4-0.6-26.2-1.2l3.9-1.1c12.8-3.6,25-9.2,36.2-16.5c13.6-9.2,20.1-25.1,17.2-39.3c-4.8-23.6-33.8-33.6-50.3-30.4
	c-19.7,3.9-31.1,20.4-28.2,40.2c0.9,6.4,4.1,12.3,9,16.4c-0.6-3.8-0.8-7.6-0.5-11.5c0.2-4.7,1.7-9.4,6-11.3s5.8-5.1,6.4-9.3
	c0.2-1,0.6-2,1-2.9c7.8-20.5,29.3-19.2,40.4-7.1c6,6.5,5.6,14.4-0.8,20.5c-2.3,2.2-5,4-8,5.2c-2.2,0.9-2.6,1.8-2,4.3
	c3,12.9-2,20.7-14.9,24.1c-4.1,1.1-8.3,1.6-12.6,1.3c-2.5-0.2-3.8,0.9-5.3,2.8c-8.4,11.5-18.8,20.4-32.7,24.5
	c-5.9,1.8-12,2.1-16.1-3.4c-3.8-4.9-5-11.3-3.2-17.2c1.5-5.1,6-7.5,11.6-5.8c-0.7,0.3-1.3,0.7-1.9,1.2c-2.8,2.8-3.2,6.1-1.1,9
	s5.6,3.5,9,1.8s5.4-4.3,5.3-7.9c0-4.2-2.5-8.1-6.3-9.9c-8.1-4.2-17.7,0-21.9,9.6c-2.9,6.6-3.5,13.9-1.9,20.8
	c2,8.5,1.1,16.4-1.3,24.4c-0.7,2.2-1,4.5-1.5,6.7l-2.3,10.4c-2-9.1-4-18-6.5-26.7c-0.7-2.3-0.7-4.8-0.2-7.1
	c1.6-7.2,2.4-14.4,1.3-21.8c-1.7-11.3-9.4-18.6-19.5-17.7c-5.4,0.4-10.2,4.9-10.7,10c-0.5,4.3,2.2,8.2,6.6,9.7
	c3.3,1.2,5.8,0,7.7-2.6s1.6-5.3-0.3-7.8c-0.8-0.9-1.7-1.6-2.7-2.3c5.9-1.2,10.6,1.4,11.5,6.6c1.2,6.4,0.6,12.7-4.2,17.7
	c-4.6,4.7-10.2,4-15.8,2.2c-13.8-4.4-24.2-13.2-32.4-24.8c-1.2-1.7-2.3-2.4-4.3-2.3c-3.7,0.1-7.5-0.1-11.1-0.8
	c-13.6-2.2-19.7-10.7-16.9-24c0.5-2.4,0.4-4.2-2.4-5.2c-3-1.1-5.7-3-8-5.3c-3.5-3.5-5.7-7.5-4.4-12.8c3.5-13.6,23.3-20.7,35.3-12.4
	c6.7,4.6,9.3,11.7,11,19.2c0.4,1.8,0.9,2.8,2.8,3.5c5.2,2.1,7.8,6.1,8.5,11.8c0.5,4.2-0.7,8.4-0.1,13.1c0.9-1.1,1.6-1.8,2.2-2.5
	c13.8-17.9,6.2-44.8-14.9-52.8c-13.5-5.1-26.2-1.8-38.4,4.6c-21,11.1-25.8,37.3-10.2,55.4c7.5,8.7,17.7,13.5,27.8,18.2
	c6.7,3.1,13.7,5.1,20.7,7.5c-2.9,0.2-5.8,0.3-8.7,0.2c-14.4-0.3-28.4,1.5-41.6,7.8c-27.8,13.3-36.9,45.4-26,69.1
	c5.4,11.7,15.8,17,27.5,14.5c10.4-2.2,18.4-13.2,18.1-24.8c-0.4-11.8-9-21.6-19.8-23.3c-4.7-0.7-9,0.5-13.7,1.8
	c2-4.8,4.9-9.2,8.4-13c9.9-10.5,22-15.8,36.6-14.2c12,1.3,20,10.1,22.3,24.3c0.2,1.5,0.1,2.8,2,3.7c17.9,8.7,24.5,24.3,25.3,43.1
	c0.9,20.5-2.6,40.5-8.7,60c-7.1,22.7-17.7,43.5-35.1,60.2c-1,1-1.9,2.3-4.7,2.8c2.2-2.6,3.7-4.4,5.2-6.2
	c14.6-18.3,23.5-38.5,20.8-62.5c-1.2-11.2-5.3-21.2-15-28c-12.1-8.4-25-9.3-38.2-2.8c-14.9,7.3-24.3,25.2-25.2,37.5
	c3-3.6,6.4-6.9,10-9.9c3.6-2.9,7.6-5.3,11.8-7.1c24.4-10.1,41.6,8.9,42.3,31c-3.7-9.3-8.3-17-17.1-21.5c-8-4.1-21.3-1.9-25.5,3.9
	c15.5-3.5,29,4.3,31.1,18.9c2.3,16.2-1.5,31.2-12.4,43.9c-11.9,13.9-27.8,20.6-45,24.9c-5.8,1.7-11.8,2.7-17.9,3.1
	c10.4-20.9,15.6-42.3,12.8-65.3c-1.5-12-5-23.3-12.3-33.1c-10.5-14.2-26-18.6-42.7-12.5c-9,3.3-15.7,9.5-21.7,16.7
	c-1.6,1.9-3,2.6-5.5,1.9c-8.2-2.3-16.5-2.2-24.8-0.7c-19.2,3.3-33.1,19.9-33,39.4c0,5.7,0.9,11.3,2.7,16.7c0.3,1.1,1.5,2.5-0.9,2.7
	c-7.7,0.6-15.1,0-21.7-4.8c-12.3-9-18.6-30.1-13.7-45.9c1.1-3.4,2.4-6.7,4.1-9.9c2.9-5.3,6.4-9.9,11.5-13.2
	c5.4-3.5,11.1-3.5,17.3-0.5c-2.4-7.4-1.7-15.5,2.1-22.2c3.6-6.8,9.5-11.1,17-14.8c-2.6,0-4.2-0.1-5.9,0c-2.2,0.2-4.3,0.6-6.4,1.1
	c-18.2,4.3-31.9,14.9-42,30.4c-11.1,17-15.8,35.5-8.8,55.3c5.5,15.6,15.2,27.6,32.2,31.9c5.6,1.3,11.4,1.5,17.1,0.8
	c-0.2,0.6-0.6,0.6-0.9,0.9c-16.1,10.4-33.9,14.3-52.8,12.6c-8-0.7-14.9-7.4-15.8-15.1c-0.3-2.4-1-3-3.3-3.6
	c-7.6-2-14.3-5.2-16.4-13.9c-1.6-6.7,1-12.4,4.4-17.7c1.5-2.3,1.1-2.9-1.2-4.1c-6-3-10.2-8.5-11.6-15c-1.6-6.7-0.9-13.4,0.1-21
	c-4.5,6.3-8.4,12.9-11.7,19.9c-12.3,26-3.6,56.5,21.8,71.4c29.2,17.1,58.4,15.2,86.8-2.6c2.4-1.5,4.6-4.6,6.9-4.6
	c2.7,0,3.9,4,5.8,6.1c15,16.5,34,26,55.8,31c-7.6,14.2-17.2,26.3-32.2,33.5c-16.7,8-32.4,17.9-46.8,29.5
	c-24.7,20.2-39.8,45.9-44.7,77.6c-1.2,7.6-1.1,15.5-2.6,23c-3.3,15.3-2,31.2,3.8,45.7c4,10.4,6.5,21,5.1,32.3
	c-1.9,15-15.6,22.3-27.2,14.1c-8.9-6.2-9.4-20.4-0.6-25.7c-0.6,2-1,4-1,6.1c-0.4,3.2,1.4,6.2,4.4,7.5c2.9,1.5,6.5,1.2,9.1-0.8
	c3.3-2.3,4.9-6.2,4.3-10.1c-0.6-4.8-3.1-8.4-7.8-10.1c-8.3-3-17.6,0.8-21.4,8.9c-0.7,1.5-1.3,3-2.1,4.9c-1.7-11.5,2.5-21,7.8-30.1
	c4.4-7.6,8.2-15.4,10.2-23.9c3.9-16.3-4.5-29.6-20.3-32.3c7,8.9,7,8.9,5.9,22.1c-0.1,1.3,0.7,1.8,1.5,2.4c6.5,5.8,7.4,12.5,2.7,19.9
	c-5.1,7.9-9.3,16.3-12.4,25.2c-5.3,15.8-2.6,29.8,9.8,41.2c15.6,14.4,36.5,8.9,42.7-11.1c2-6.6,2.5-13.5,1.6-20.2
	c-0.7-5.4-1.4-10.8-2.1-16.2c12.1,17.8,11.6,36.7,4.9,56.2c10.5-10.6,19.9-21.9,26.2-35.4c7.5-16.1,7-31.7-1.9-47.1
	c-4.4-7.6-9.8-14.5-14.6-21.7c-1.3-1.9-3-3.7-3.7-6.6c1.1,0.5,1.7,0.8,2.2,1.1c13,5.5,26-0.9,29.4-14.5c2.3-9.2-2.1-18.1-10.2-20.6
	c-4.9-1.5-11.1,1.6-12.6,6.2c-1.7,4.6,0.6,9.7,5.2,11.4c0,0,0,0,0,0c3.1,1.3,5.9,0.4,8.5-1.4c0.4,12.1-9,18-19.3,12.4
	c-7.4-4-10.7-10.5-10.4-18.8c0.4-11.8,4.4-22.3,11-32c9.9-14.5,23.2-25.4,37.4-35.4c4.5-3.2,9.1-6.1,13.6-9.2
	c-6.5,11.1-9.3,23.9-8.1,36.6c1.3,14.2,6.7,26.3,19.2,34.3c2.2,1.4,4.2,2.9,6.2,4.6c10.6,9.1,14.3,23.5,9.4,35.9
	c-4.3,10.8-15.3,20-31,18.6c-3.9-0.3-7.5-1.7-11.5-2.3c4.9,9.8,12,14.6,21.6,14.5c17.1-0.1,34.8-17.6,36.5-35.9
	c0.6-5.4,0.3-10.8-0.8-16.1c-0.4-1.9-0.1-2.7,2.2-2.4c4.9,0.5,9.8,0.3,14.6-0.5c12.6-1.7,23.4-6.8,31.1-17.2
	c11.3-15.4,12.5-33.4,13-51.8c-1.8,0.9-1.8,2.3-2.3,3.4c-4.1,8.9-8.8,17.4-15,25c-12.4,15.2-27.3,25.6-48.2,22.1
	c-15.1-2.6-28.1-9.1-32.9-25.2C353.2,471.7,357.8,456.4,369.9,443.2z M468.2,733.6l0.1,1.4h4.4c52.4,0,104.9,0,157.3,0
	c7.1,0.1,14.2-0.4,21.2-1.5c42.2-6.8,73.2-29.3,91.9-67.7c17.6-36.1,19.3-73.9,8.6-112.3c-10.2-36.6-32.7-62.8-67.5-78.2
	c-21-9.3-43.1-12.9-65.8-13c-48.4-0.2-96.9,0-145.3,0c-1.2,0-2.5-0.5-3.6,0.5c0.5,1.6,1.9,1.4,2.9,1.6c11.7,1.9,23.3,4,35.1,5.4
	c4.2,0.5,5.8,2.1,6.1,6.2c2.1,23.8,3.5,47.6,3.7,71.5c0.5,46.6,0.7,93.2-2.3,139.7c-0.8,12.3-1.6,24.7-3.6,36.9
	c-0.3,1.9-1,2.6-2.8,2.9c-8.8,1.3-17.6,2.5-26.3,4C477.4,732,472.7,732.2,468.2,733.6L468.2,733.6z M953.1,506.4
	c0.5-12.6-3.2-24-9.5-34.7c-4.5-7.7-10-14.6-15.3-21.7c-3.1-4.1-3.1-8.6-0.5-13s6.2-7.2,11.2-7s8.2,4,9.9,8.6
	c1.2,3.5,0.9,7.2-0.7,10.5c-1.7,3.7-4.5,6.4-7.6,9.1c8.2,0.9,15.2-3.6,17.4-11c4.1-13.5-7.2-28.7-22.2-30.7c-8.9-1.2-17.3,0.8-26,2
	c-6.8,1-13.6,0.8-19.7-3.1c-2.5-1.6-4.7-4.4-3.6-7c0.8-2.2,4.3-1.7,6.7-1.2c1,0.2,2,0.4,3,0.8c1.9,0.6,9.4,0.5,11.2-0.2
	c0.6-0.2,1.2-0.3,1.8-0.6c3.5-1.3,6.7,0.5,10.7,1.1c-3.9-4.6-9-8.2-14.7-10.2c-12.3-4.5-24.2-2.3-36,2.1c-4,1.5-4.1,1.6-1.3,4.8
	c14.6,17,33.5,22.6,55.3,21.3c-2.4,2-4.4,4.4-4.6,7.7c-0.2,3,0,6,0,10c-10.5-11.7-23.5-17.5-36.8-23s-25.4-12.3-33.5-25.8
	c0,3.8,1.4,6.2,2.8,8.6c4,6.7,10.2,11.2,16.6,15.3c9.7,6.2,20,11.4,30.1,16.9c22.1,12.3,39.5,28.9,49,52.9
	C949,494.7,951,500.6,953.1,506.4z M579.5,1011.6c5.1,0.2,5.3,4.1,5.6,7.7c0.2,2.2,0.1,4.4,0.1,6.6c0,16.1-0.4,32.3,0.2,48.4
	c0.2,6.7-2.1,11-7.3,14.4c-1.6,1.1-3.2,2.1-4.9,3c-8.2,3.7-16.1,3.7-23.6-1.9c-6.2-4.7-8.2-11.4-8.3-18.7
	c-0.2-16.6-0.1-33.3-0.1-49.9c0-2.2-0.4-4.4,0.5-6.5c0.9-2.3,3.7-1.6,5.5-3.1h-21c5.6,0.5,5.2,4.6,5.2,8.5c0,17.2-0.1,34.3,0,51.5
	c0.1,9.4,2.6,17.8,10.9,23.4c10.2,6.9,26.5,5.1,36.8-4c2-1.8,3.9-3.8,6.2-6.2c0,4,0,7.2,0,10.4c0,1.1-0.3,2.4,1.6,2.3
	c4.5-0.1,9,0,13.5,0c-5.2-2-5.7-2.7-5.7-8.7c0-22.6,0-45.2,0-67.8c0-4.4-0.3-8.7,5.7-9.4L579.5,1011.6z M771,1098.5v-4.9
	c0-23.9,0-47.7,0-71.6c0-4.5-0.4-9.3,5.9-10.3h-15c5.4,0.7,5.5,4.7,5.5,8.6c0,18.5,0,36.9,0,55.4c0,0.9,0.6,2.1-0.9,2.6
	c-2.1-2.4-4.3-4.8-6.4-7.2c-16.9-19.1-33.8-38.2-50.7-57.3c-0.9-1-1.5-2.3-3.3-2.3c-4.5,0.1-9.1,0-13.7,0c8.1,2.3,10.2,5,10.5,13.7
	c0.1,1.7,0.1,3.3,0.1,5c0,19,0,37.9,0,56.9c0.1,2.3-0.1,4.6-0.5,6.9c-0.5,2.6-3.6,1.9-5.2,3.2h15.2c-5.5-0.7-5.5-4.7-5.6-8.7
	c0-0.3,0-0.5,0-0.8c0-19.6,0-39.2,0-58.8c0-0.7-0.6-1.8,0.7-2.3L771,1098.5z M517.3,1049.3c0.2-4-0.3-8-1.3-11.9
	c-5.9-20.8-25.5-31.8-48.6-26.3c-26.2,6.2-38.6,37.4-32.4,59.6c8,28.4,36.7,34.8,58.3,23C510.5,1084.3,516.8,1068.2,517.3,1049.3z
	 M854.7,1097.3c-5.4-1.3-6.5-6-8.1-10.1c-9.4-24.6-18.7-49.2-28.1-73.8c-0.4-0.9-0.2-2.7-1.8-2.7s-1.5,1.8-2,2.9
	c-9.4,25.1-18.8,50.3-28.3,75.4c-1.4,3.6-2.8,7.1-7,8.3h11.3c-2.4-1.2-2.5-2.7-1.6-5c4.1-10.7,8.1-21.6,12.1-32.3
	c0.5-1.3,1-2.1,2.7-2c6.4,0.1,12.9,0.1,19.3,0c1.3-0.2,2.5,0.7,2.8,1.9c4,10.7,8,21.3,12.1,31.9c0.9,2.3,1.1,4.2-1.5,5.6
	L854.7,1097.3z M651.7,1023.2l0.6-0.4c-0.7-1.9-1.7-3.7-1.9-5.6c-0.7-4.8-3.7-6-7.9-6.6c-6.4-0.9-12.8-1.6-18.9,1.3
	c-8.6,4.1-12.8,11.2-13,20.6c-0.2,9.4,3.2,17.2,12.1,21.4c6.7,3.2,13.7,5.6,20.3,8.9c6.4,3.2,9.6,8.7,8.6,16.1
	c-0.9,6.8-4.8,11.3-11,13.6c-6.1,2.3-12.3,2-18.6,0.5c-7-1.7-11-6-12.3-13.1c-0.3-2.4-0.7-4.8-1.3-7.2c-0.6,7.8-0.6,15.6-0.5,23.4
	c0,1.9,1.7,1.2,2.7,1.2c7.3,0,14.7,0.2,22-0.1c5.7-0.3,11.4-1,16-5.3c11.5-10.8,11.9-33.2-6.8-41.3c-6.2-2.7-12.7-4.7-18.8-7.7
	c-9.3-4.6-11-16.3-4-24.1s20.1-7.8,28.4,0.1C648.9,1020.3,650.3,1021.8,651.7,1023.2L651.7,1023.2z M991.5,1023.3l0.9-0.6
	c-0.8-1.7-1.4-3.5-1.8-5.3c-0.7-4.8-3.8-6.2-8.2-6.9c-7-1-13.8-1.6-20.2,2.1c-8.2,4.8-11.8,12.2-11.5,21.6
	c0.4,9.2,4.3,16.3,12.9,20.2c6.3,2.8,12.8,5.2,19,8.1c7.2,3.4,10.1,8.8,9.1,16.6c-0.9,7-5.1,11.5-11.8,13.7c-6.2,2-12.4,1.6-18.6,0
	c-6.4-1.7-9.9-5.9-11.3-12.2c-0.6-2.6-0.7-5.2-1.4-7.8c-0.6,7.8-0.6,15.4-0.6,23.1c0,1.9,1.4,1.5,2.5,1.5c7.6,0,15.2,0.2,22.8-0.2
	c5.2-0.3,10.4-0.9,14.8-4.6c12.3-10.6,12.9-33.7-5.8-41.9c-6.2-2.7-12.7-4.8-18.8-7.7c-9.5-4.7-11.3-16.4-4.2-24.3
	c6.9-7.5,19.6-7.7,27.8-0.2C988.7,1020,990,1021.7,991.5,1023.3L991.5,1023.3z M886,1011.6c5.8,0.2,5.5,4.4,5.5,8.4
	c0,23,0,45.9,0,68.8c0,4.1-0.2,7.8-5.8,8.3c15.4,0.3,30.6,0.3,45.7,0.3c3.2,0,7.5,1.1,9.3-0.5c2.2-1.9,0.7-6.3,0.7-9.6
	c0-3.6,0.4-7.2-0.4-11.2c-1.5,1.8-1,3.4-1.1,4.9c-0.6,8.9-4.3,13.4-12.3,13.9c-5.5,0.3-11,0.6-16.5-0.5c-6.5-1.3-9.7-4.4-9.7-10.8
	c-0.1-22.2,0-44.3-0.1-66.5c0-2.5,1.1-3.8,3.4-4.5c0.8-0.2,1.9,0.1,2.4-1L886,1011.6z M225.7,1011.6c5,0.6,5.6,3.8,5.6,7.9
	c-0.1,22.7,0,45.4-0.1,68.1c0,2.2,0.3,4.4-0.4,6.5c-0.8,2.3-3.4,1.9-5.6,3.4c18.3,0,36,0,53.6,0c1,0,2.5,0.6,2.5-1.4
	c0-6.5,0-12.9,0-19.4c-1.8,1.2-1.4,2.8-1.5,4.2c-0.6,8.9-4,13.3-11.8,14c-5,0.5-10,0.5-15-0.1c-9.2-1.1-11.9-4.4-11.9-13.7
	c0-20,0-40,0-60c0-2.2-0.5-4.4,0.5-6.5s3.6-1.8,5.7-3L225.7,1011.6z M400.5,1085c-1,0.2-1.3,0.2-1.4,0.3
	c-11.3,10.6-24.8,12.7-39.4,10.2c-8.3-1.5-15.8-6.1-20.7-12.9c-10.3-13.6-15.6-28.9-10.6-45.8c7.5-25.2,39.5-32.7,60-14.5
	c0.9,0.8,1.7,1.5,3.4,3.1c-0.7-2.4-1.1-3.6-1.3-4.8c-0.8-4-3.2-6.1-7.1-7.5c-7.6-2.8-15.8-3.8-23.8-3.1
	c-11.5,1.1-21.6,5.7-29.2,14.6c-10.2,12-13.9,26.1-10.7,41.4c2.9,14.4,10.6,25.5,25.4,30.2c16.4,5.2,32.7,3,48.9-1.2
	c0.7-0.3,1.3-0.9,1.6-1.5C397.1,1090.8,398.6,1088.2,400.5,1085z M624.7,1122c0.2-1.9,0.7-3.1,0.4-4.4c-1.3-5.6-8.6-7.7-13.4-3.8
	c-4.3,3.5-5.9,9.7-3.9,15.5c0.4,1.1,1.8,2.1-0.3,3.1c-7.9,3.8-16,6.4-24.8,4.3c-7.8-1.9-13.5-9.4-12.8-16.6c0.4-3.9,3-6.8,6.5-7
	c3.2-0.2,6.2,2.5,7,6c0.5,1.9-0.8,3.4-1,5.2c3.1-3.1,3-8.1-0.1-11.2c-0.8-0.8-1.9-1.5-3-1.8c-6.4-2.3-13.4,4.3-12.3,11.5
	c1.4,9,8.3,15.3,17.4,16.4c8.5,1,16.3-1,23.9-4.3c1.9-0.8,3.1-0.8,4.8,0.5c2.5,2,5.7,3.1,8.9,3c5.1,0.1,9.5-2,13.7-4.5
	c6-3.5,11.7-7.4,17.7-10.9c5.1-3,10.5-4.8,16.5-4.1c6.2,0.7,10.5,5.7,9.7,11.6c-0.3,2.4-1.8,3.8-4.1,3.9c-2.5,0.1-4-1.6-4.4-4
	c0-1.1,0.1-2.2,0.3-3.2c-1.3,0.8-0.9,2.3-1.7,3.3c-4.9-2.9-5.8-3.2-8.2-2.7c-5.2,1.2-8,5-7.6,10.4c0.3,4.9,4.6,9,10,9.5
	c10.6,0.9,19.8-10.4,17.7-21.5c-1.7-9.1-7.3-14.9-15.7-17.9c-7.9-2.9-15.4-0.8-22.7,2.7C637,1114,631.2,1118.1,624.7,1122
	L624.7,1122z M620.8,976.3c-1-0.5-1.5-0.8-2-1.2c-7.4-4.6-14.6-9.5-23-12.2c-16.4-5.3-33.4,7-31.4,23c1.1,8.7,8.2,18.5,18.4,16.2
	c4.7-1,7.9-3.5,9.1-8.2c1-3.5-0.3-7.2-3.2-9.3c-3.6-2.9-7.5-3.1-11.3-0.1c-0.4,0.3-0.9,1.1-1.5,0.1c-0.2-0.3-0.4-0.9-0.5-0.8
	c-0.7,0.1-0.4,0.8-0.5,1.2c-0.7,2.9-2.5,4.7-5.6,3.8c-3.3-1-3.5-3.8-2.9-6.6c1.3-6.6,8.1-10.1,15.8-8.5c6.3,1.4,11.6,4.5,16.9,7.9
	c5.5,3.5,10.8,7.4,16.9,9.9s12,2.5,17.4-1.8c1.4-1.1,2.4-0.9,3.8-0.2c5,2.2,10.4,3.7,15.8,4.6c11.6,1.9,22.4-4,25.3-14
	c1.7-5.9-0.5-11.5-5.4-13.8c-3.5-1.7-7.6-0.7-10,2.4c-2.6,3.3-2.5,6.6,0.7,10.3c-0.3-0.9-0.4-1.4-0.5-1.8c-1.2-4,0.9-8.3,4.5-9.2
	c4.4-1,7.6,1.5,8.3,6.3c1,7-3.9,14.3-11.5,16.6c-9.5,2.9-18,0.1-26.3-3.9c-1.7-0.8-0.5-1.6-0.2-2.4c1.8-4.2,1.4-9-1-12.9
	c-2.3-4-6.5-5.9-10.4-4.8C622.3,967.9,620.8,970.3,620.8,976.3L620.8,976.3z M404.7,1011.5c4.5,1.5,5,1.9,5.2,6.5
	c0.9,23.9,0.4,47.7,0.3,71.6c0,3.9-1,7-5.5,7.7H426c-6.2-2.2-6.2-2.2-6.2-8.9c0-22.3,0-44.7,0-67c0-2.2-0.4-4.4,0.4-6.5
	c0.9-2.5,3.8-1.9,5.8-3.4L404.7,1011.5z M310.5,1097.3c-5.4-1.7-5.8-2.3-5.8-8c0-22.8,0-45.7,0-68.5c0-4.5-0.4-8.8,5.8-9.1h-20.9
	c4,0.6,5,3,5.3,6.7c0.5,8,0.2,16,0.3,24c0,15.5,0,31-0.1,46.5c0,3.8,0.1,8-5.5,8.5L310.5,1097.3z M859.2,1011.5
	c3.9,0.7,5.2,2.9,5.3,6.5c0.7,23.7,0.3,47.5,0.2,71.2c0,3.9-0.5,7.5-5.5,8h21.3c-6.2-2.2-6.2-2.2-6.2-8.9c0-22.3,0-44.7,0-67
	c0-2.2-0.4-4.4,0.4-6.5c0.9-2.5,3.8-1.9,5.8-3.4L859.2,1011.5z M828.8,542.9c-3.6,3.9-6.6,8.4-8.8,13.3c-5,11.3-4.7,22.4,1.3,33.2
	c1.9,3.4,4.8,5.6,8.7,5.3c4.1-0.3,7.1-2.8,8.8-6.6c1.9-4.4,0.5-8.3-2.3-11.8c-4.5-5.5-7.4-12.1-8.3-19.1
	C827.6,552.6,828.6,548.2,828.8,542.9z M403.4,543.6c1.7,12,0.1,23-7.8,32.5c-0.8,1-1.5,2.1-2,3.2c-2.5,5.2-0.4,11.5,4.8,14.2
	c4.8,2.5,9.8,0.7,12.8-4.9c2.8-5.2,4.3-11.1,4.3-17C415.3,560.6,410.7,551.5,403.4,543.6L403.4,543.6z M973.3,296
	c3.2-0.3,6.2-2,8.2-4.5c3.5-4.3,5.7-9.5,6.5-15c0.8-4.2,0.8-8.2-0.9-12.1c-1.8-4.1-5.9-5.6-10.3-4.1c-3.4,1.2-4.9,4.7-3.8,9
	c0.3,1.6,0.9,3.2,1.8,4.6C979.6,281.4,980.7,288.6,973.3,296z M258.3,296c-6.2-8.2-6.4-12.4-1.5-21.2c0.9-1.4,1.6-2.9,2-4.5
	c0.6-3,1.2-6.2-1.6-8.6c-2.3-2-5.5-2.5-8.3-1.3c-3.6,1.4-4.9,4.8-5.2,8.3c-0.7,7.5,1.2,15,5.5,21.1
	C251.2,292.9,253.8,295.3,258.3,296z M921,271.4c7.6,9.5,10,20,6.8,31.8c-3.2,11.5-10.1,20.2-20.5,27.8c5-0.6,8.6-1.8,11.7-4.1
	c11.4-8.8,15.8-20.9,15.2-34.9C933.8,282.7,930,275.3,921,271.4z M848.3,633.8c10.3-8.1,20.7-9.3,31.7-4.3c10.5,4.8,17.4,13,22.8,23
	c0.2-1.6,0.2-3.2-0.1-4.7c-3.3-17.4-22.8-28-37.2-26.4C858,622.1,852,625.6,848.3,633.8z M383.2,633.1c-2.3-5.6-7.2-9.8-13.2-11.1
	c-14.3-3.5-32.4,5.6-38.7,19.4c-1.7,3.5-2.4,7.5-2,11.4C342,628,366,619.2,383.2,633.1L383.2,633.1z M861.4,796
	c10.9,17.2,49.4,19.3,61.9,3.1C902,806.8,881.5,807,861.4,796z M308.2,798.9c15,17.3,53.3,13.4,63.3-3.7
	C351.1,806.9,330.3,806.9,308.2,798.9L308.2,798.9z M765.9,361.6c-9.3-21.8-13.9-43-6-65.3C744.7,317.6,747.8,339.9,765.9,361.6z
	 M802.6,448.4c4.3,17.2,18.7,25.9,33.3,20.3C821,468.3,810.7,460.7,802.6,448.4L802.6,448.4z M429.5,448.7
	c-12,14.9-17.4,18.2-32.9,20.1C413.1,474.3,424.7,464.6,429.5,448.7L429.5,448.7z"/>
<path class="st1" d="M702.5,345.9c0.7-0.7-0.4-1.1-0.9-1.6l-0.7-0.8c-9.2-10.5-17-21.8-21.5-35.2c-4.8-14.1-6.3-28.4-1.8-42.7
	c7.9-24.7,37.3-33,57.8-16.5c9.9,8,15.6,18.5,18.4,30.8c0.1,0.8,0.1,1.6,0,2.4c-4.8-5.3-9.3-10-14.9-13.4
	c-8.7-5.4-17.9-8.4-28.1-5.1c-11.7,3.8-17.2,13.1-20.3,24.2c-0.5,2.2-0.9,4.5-1.1,6.8c-0.6,0.8-0.6,1.9,0.1,2.6l0.3-2.3
	c2.6-4.9,4.8-10.1,8.7-14.3c10.2-11.1,25.7-10.3,34.2-2.2c-4.3-0.9-8.7-1-13-0.2c-11.7,2.5-18.8,11.5-19.1,23.6
	c-0.6,23.7,9.5,41.3,29.8,53.3c13.4,7.9,28.3,11.7,43.5,14.1c0.8,0.1,1.7,0.1,2.5,0c-5.2-9.8-9-20.3-11.2-31.2
	c-4-20.4-3.7-40.4,5.8-59.5c5-10.1,12.4-18.2,23.5-21.5c13.8-4.1,26.1,0.1,36.8,9c3.2,2.6,6.1,5.6,8.7,8.8c1.8,2.2,3.5,2.5,6.2,1.9
	c11.4-2.6,22.7-2.2,33.6,2.5c15.9,6.9,25.4,23.3,23.5,40.5c-0.6,5.1-1.7,10.1-3.3,15c15.6,2.5,26.3-3.1,33.4-16.8
	c9.3-18.2,6.6-35-5.5-50.7c-6.3-8.2-13.6-10.2-23.5-6.7c3.6-17.2-3.6-28.8-19.4-36.8c8.3-0.4,15.3,1.4,22,4.2
	c24.5,10,46.8,38.5,43.8,71c-1.9,20.2-17.3,40.1-34.8,43.5c-5.7,1.2-11.5,1.4-17.3,0.5c7.4,5.5,15.7,9,24.4,11.5
	c9.5,2.7,19.3,2.9,29.1,2.3c8.3-0.6,14.4-6.5,16.2-15.5c0.4-2.2,1-3.2,3.2-3.1c0.6-0.1,1.2-0.3,1.8-0.6c13.6-4,18.4-14.9,12-27.6
	c-1-2-2.3-4-3.6-6.1c6.9-3,11.8-7.8,14-15.3c2.1-7.1,1.3-14.1,0.6-21.3c8.7,12.6,16.6,25.5,16.8,41.4c0.2,21.3-9.1,37.6-27,49
	c-26.6,16.9-62.5,15.2-89.5-4.1c-4.9-3.5-5-3.5-8.7,0.9c-14,16.6-32.1,26.4-52.8,31.9c-1,0.3-2,0.6-3,0.7c-1.7,0.2-1.5,0.8-0.8,2
	c7.1,12.6,15.5,24,28.8,30.7c16.5,8.3,32.5,17.6,47,29.1c25.2,20,41.2,45.4,46.6,77.3c2.2,13.2,3.5,26.5,4.7,39.8
	c1,10.4-1.5,20.4-5.2,30.1s-6.4,19.5-5.8,30c0.1,5.2,1.8,10.2,4.7,14.4c4,5.5,9.7,7.2,16,5.9c6.6-1.4,11.4-5.4,13.1-12.1
	c1.6-6.2,0.5-11.9-5-16.5c-0.4,1.1-0.3,2.4,0.1,3.5c1.3,5.8-1.2,9.8-6.8,10.9c-4.9,0.9-9.9-2.9-10.6-8.2
	c-1.3-9.7,6.6-16.4,16.7-14.2c7.1,1.5,9.3,3.6,14.5,14.2c1-6.1-0.1-11.2-1.6-16.1c-1.8-6.1-5.2-11.4-8.2-16.9
	c-4.6-8.6-8.7-17.4-9.2-27.5c-0.7-13.6,7.4-21.4,18-25.1c0.9-0.3,1.9-0.5,3.5-0.8c-1.2,1.4-2,2.3-2.8,3.2c-4.3,5.2-6,11-4.1,17.6
	c0.5,1.7,0.4,2.8-1.2,4.2c-6.5,5.6-7.2,12-2.8,19.2c6.4,10.4,12.1,21.1,14.5,33.2c3.8,19-9.7,38.8-28.7,41.5
	c-10.8,1.5-22-6.6-25.7-19c-2.9-9.7-1.9-19.6-0.4-29.5c0.4-2.6,0.8-5.2,1-7.8c-12.1,18.1-11.9,37.2-4.8,57
	c-13.9-14.6-27-29.5-30.9-50.1c-1.9-10.2,0-19.9,4.7-29.1s11.1-17.2,16.8-25.8c1.3-1.8,2.4-3.8,3.4-5.8c-4.4,2.3-9.3,3.2-14.2,2.6
	c-7.1-0.9-12.6-4.3-15.6-11s-4.1-13.5,0.6-20.1c2.1-3.1,5.4-5.3,9.1-6c4.5-0.6,8.8,1.7,10.9,5.7c1.8,3.6,0.9,7.9-2,10.6
	c-3.4,2.9-6.8,3-11.6,0.1c0,7.5,3.2,12.7,8.7,14.3c6,1.7,14-2,18.1-8.3c4.5-6.9,3.5-14.3,1.9-21.6c-3.5-16.4-13.2-29-25.1-40.2
	c-10.5-10-22.3-18.1-34.4-26c-0.6-0.2-1.1-0.4-1.7-0.5c3.7,6.1,6.4,12.8,7.8,19.9c2.8,15.4,0.5,29.7-9,42.4c-2.8,3.8-6.7,6.4-10.5,9
	c-10.3,7-16.8,16.1-16.6,29.1c0,16.3,13.3,29.5,29.6,29.5c0.6,0,1.2,0,1.8-0.1c4.5-0.3,8.9-1.2,13.2-2.6
	c-5.3,12.7-18,17.8-31.5,12.9c-18.2-6.6-30.1-27.8-26.4-46.9c1.1-5.7,1.1-5.6-4.6-5.6c-13.5,0.1-26.3-2.3-36.9-11.6
	c-7.3-6.4-11.7-14.6-14.4-23.7c-3.3-11.3-4.7-23.2-4-35c2.2,4.5,4,8.5,6.1,12.4c6.6,12.2,14.6,23.4,26.3,31.3
	c17.3,11.6,36.2,10.2,53-0.8c9.1-5.9,13.3-15,14.2-25.7c1.2-12.7-2.7-25.3-11-35.1c-0.5-0.6-0.9-1.7-2.2-1.3
	c-0.7,1.5,0.7,2.5,1.2,3.7c3.5,7.4,5.8,15.1,5.2,23.4c-0.7,10.4-5.8,17.6-15.3,21.6c-11,4.6-22.2,3.4-33.5,1.1
	c8.7-1.3,17.5-2.1,25.9-5.1c10.6-3.8,16.7-10.9,17.3-20.6c-1.6,2.7-3.4,5.3-5.3,7.8c-15.6,18.4-43.6,16.1-56.9-4.5
	c-4.9-7.6-8.2-19.6-7.8-29.7c1.4,3.5,2.4,6.5,3.8,9.3c5.5,10.9,12.7,20,25.2,23.3c10.8,2.9,23.8-3,26.7-12c1.6-5,0.6-10-1.2-14.7
	c-2.6-6.6-6.5-12.5-11-18c-0.4-0.5-0.8-1-1.1-1.6c-6.5-12.8-18.4-19.9-29.5-27.8c-3.6-2.7-7.1-5.6-10.4-8.7c-1.5-1.4-3.5-2.1-5.5-2
	c-51.8-0.7-94.4-21.3-128.3-60.2c-15.4-17.7-28.9-36.7-37.7-58.7c-3-7.4-5.2-15-6.7-22.8c-0.1-0.6-0.3-1.1-0.5-1.7
	c-15.5,54.9-48.1,97-98.3,125.1c-20.2,11.3-42.3,16.6-65.4,17.8c-3.9,0.2-7.7,0.5-11.6,0.6c-1.4,0-2.7,0.6-3.7,1.6
	c-8.2,7.6-17.1,14.4-26.7,20.2c-2.7,1.7-4.9,4-6.6,6.7c-3.9,5.9-8.3,11.5-12.4,17.2s-7.3,11.7-8.5,18.7c-1.3,7.4,1.4,13.5,7.9,17.3
	c11.3,6.6,24.4,4.4,34.6-6c6.2-6.3,10.3-13.9,13.1-22.7c1.5,15.1-7,39.9-29.8,45c-14,3.1-29.1-2.7-36.9-14.8c-0.6-1.1-1.4-2.1-2.3-3
	c0,4.5,1.8,8.1,4.7,11.4c5.4,6.1,12.7,8.5,20.3,10c5.9,1.1,11.8,1.9,18.8,2.9c-13.3,2.4-25.6,3.7-37.4-2.5
	c-9.7-5.1-14.5-16.4-12.6-27.6c1.2-7.1,3.8-13.5,6.9-19.9c0.5-0.8,1.8-1.5,1.1-2.9c-0.6,0.7-1.3,1.4-1.8,2
	c-12.1,13.2-16.7,28.5-11.5,45.9c4.8,16.1,17.8,22.6,32.9,25.2c20.9,3.6,35.8-6.8,48.2-22.1c6.2-7.6,10.8-16.2,15-25
	c0.5-1.1,0.5-2.5,2.3-3.4c-0.6,18.5-1.7,36.4-13,51.8c-7.7,10.5-18.5,15.5-31.1,17.2c-4.8,0.8-9.8,1-14.6,0.5
	c-2.3-0.3-2.7,0.5-2.2,2.4c1.1,5.3,1.4,10.7,0.8,16.1c-1.7,18.3-19.3,35.9-36.5,35.9c-9.6,0-16.7-4.7-21.6-14.5
	c4,0.6,7.6,2,11.5,2.3c16,1.1,27-8.1,31.3-18.9c4.9-12.4,1.2-26.9-9.4-35.9c-2-1.7-4-3.2-6.2-4.6c-12.5-8-17.9-20.1-19.2-34.3
	c-1.2-12.8,1.7-25.6,8.1-36.6c-4.5,3.1-9.2,6-13.6,9.2c-14.1,10-27.5,20.9-37.4,35.4c-6.5,9.7-10.6,20.2-11,32
	c-0.3,8.3,3,14.8,10.4,18.8c10.3,5.6,19.7-0.3,19.3-12.4c-2.7,1.8-5.4,2.7-8.5,1.4c-4.6-1.7-6.9-6.8-5.2-11.3c0,0,0,0,0,0
	c1.5-4.6,7.7-7.7,12.6-6.2c8.1,2.4,12.6,11.4,10.2,20.6c-3.4,13.6-16.4,20-29.4,14.5c-0.5-0.2-1.1-0.5-2.2-1.1
	c0.8,2.9,2.4,4.7,3.7,6.6c4.9,7.2,10.3,14.1,14.6,21.7c8.9,15.4,9.4,31.1,1.9,47.1c-6.4,13.5-15.8,24.8-26.2,35.4
	c6.7-19.5,7.2-38.4-4.9-56.2c0.7,5.4,1.4,10.8,2.1,16.2c1,6.8,0.4,13.7-1.6,20.2c-6.2,20-27.1,25.6-42.7,11.1
	c-12.3-11.4-15-25.4-9.8-41.2c3.1-8.8,7.3-17.3,12.4-25.1c4.7-7.4,3.7-14.2-2.7-19.9c-0.8-0.7-1.6-1.1-1.5-2.4
	c1.1-13.2,1-13.2-5.9-22.1c15.8,2.7,24.1,16,20.3,32.3c-2,8.6-5.8,16.4-10.2,23.9c-5.3,9.1-9.4,18.6-7.8,30.1
	c0.8-1.9,1.4-3.4,2.1-4.9c3.7-8,13-11.9,21.3-8.9c4.7,1.7,7.2,5.3,7.8,10.1c0.6,3.9-1,7.9-4.3,10.1c-2.6,2-6.2,2.4-9.1,0.8
	c-2.9-1.3-4.7-4.3-4.4-7.5c0-2.1,0.3-4.2,0.9-6.2c-8.8,5.4-8.2,19.5,0.7,25.7c11.6,8.2,25.4,0.9,27.2-14.1c1.4-11.3-1.1-22-5.1-32.3
	c-5.8-14.5-7.1-30.5-3.8-45.8c1.6-7.5,1.4-15.3,2.6-23c5-31.6,20-57.4,44.7-77.6c14.4-11.7,30.1-21.6,46.8-29.5
	c15-7.2,24.5-19.4,32.2-33.7c-21.7-5-40.7-14.4-55.8-31c-1.9-2.1-3.1-6.1-5.8-6.1c-2.3,0-4.5,3.1-6.9,4.6
	c-28.5,17.9-57.6,19.8-86.9,2.7c-25.4-14.9-34.1-45.4-21.8-71.4c3.3-7,7.2-13.7,11.8-19.9c-1,7.6-1.7,14.3-0.1,21
	c1.4,6.5,5.6,12,11.6,15c2.2,1.1,2.6,1.8,1.2,4.1c-3.4,5.3-6.1,11-4.4,17.7c2.1,8.6,8.8,11.9,16.4,13.9c2.3,0.6,3,1.2,3.3,3.6
	c0.9,7.7,7.7,14.4,15.8,15.1c19,1.7,36.7-2.2,52.8-12.6c0.3-0.2,0.7-0.3,0.9-0.9c-5.7,0.7-11.5,0.5-17.1-0.8
	c-17-4.3-26.7-16.3-32.2-31.9c-7-19.8-2.3-38.3,8.8-55.3c10-15.4,23.8-26.1,42-30.4c2.1-0.5,4.3-0.9,6.4-1.1c1.6-0.2,3.3,0,5.9,0
	c-7.5,3.7-13.3,8-17,14.8c-3.8,6.8-4.6,14.9-2.2,22.3c-6.2-2.9-11.9-3-17.3,0.5c-5.1,3.3-8.7,8-11.5,13.2c-1.7,3.2-3.1,6.5-4.1,9.9
	c-5,15.8,1.3,36.9,13.7,45.9c6.6,4.8,14,5.3,21.7,4.8c2.4-0.2,1.2-1.6,0.9-2.7c-1.7-5.4-2.6-11-2.7-16.7
	c-0.1-19.4,13.8-36.1,33-39.4c8.3-1.5,16.6-1.6,24.8,0.7c2.5,0.7,3.9,0,5.5-1.9c6-7.2,12.7-13.4,21.7-16.7
	c16.6-6.2,32.1-1.7,42.7,12.5c7.3,9.8,10.8,21.1,12.3,33.1c2.8,23-2.4,44.3-12.8,65.3c6-0.4,12-1.5,17.9-3.1
	c17.2-4.4,33.1-11.1,45-24.9c10.8-12.6,14.7-27.6,12.4-43.9c-2.1-14.6-15.6-22.4-31.1-18.9c4.2-5.8,17.6-8,25.5-3.9
	c8.8,4.5,13.5,12.2,17.1,21.5c-0.7-22-17.9-41.1-42.3-31c-4.3,1.8-8.2,4.2-11.8,7.1c-3.6,3-7,6.3-10,9.9
	c0.9-12.3,10.3-30.2,25.2-37.5c13.2-6.5,26.1-5.6,38.2,2.8c9.7,6.7,13.7,16.7,15,28c2.7,24-6.3,44.2-20.8,62.5
	c-1.5,1.8-3,3.6-5.2,6.2c2.8-0.5,3.7-1.8,4.7-2.8c17.4-16.7,28-37.5,35.1-60.2c6.1-19.5,9.6-39.4,8.7-60
	c-0.8-18.8-7.4-34.3-25.3-43.1c-1.9-0.9-1.7-2.2-2-3.7c-2.3-14.2-10.3-23-22.3-24.3c-14.6-1.6-26.7,3.7-36.6,14.2
	c-3.6,3.8-6.4,8.2-8.4,13c4.8-1.3,9-2.5,13.7-1.8c10.8,1.7,19.4,11.6,19.8,23.3c0.4,11.6-7.6,22.6-18.1,24.8
	c-11.8,2.5-22.2-2.9-27.5-14.5c-10.9-23.7-1.8-55.8,26-69.1c13.2-6.3,27.2-8.1,41.6-7.8c2.9,0.1,5.8,0,8.7-0.2
	c-7-2.3-14-4.4-20.7-7.5c-10.2-4.7-20.3-9.5-27.8-18.2c-15.6-18-10.8-44.3,10.2-55.4c12.2-6.5,24.9-9.7,38.4-4.6
	c21.2,8,28.7,34.9,14.9,52.8c-0.6,0.8-1.3,1.4-2.2,2.5c-0.6-4.7,0.6-8.9,0.1-13.1c-0.7-5.7-3.4-9.7-8.6-11.8
	c-1.8-0.8-2.4-1.8-2.8-3.5c-1.7-7.5-4.3-14.5-11-19.2c-12-8.2-31.8-1.2-35.3,12.4c-1.3,5.3,0.9,9.3,4.4,12.8
	c2.2,2.4,4.9,4.2,7.9,5.3c2.9,1,2.9,2.8,2.4,5.2c-2.7,13.4,3.3,21.9,16.9,24c3.7,0.6,7.4,0.9,11.1,0.8c2-0.1,3.2,0.7,4.3,2.3
	c8.2,11.6,18.7,20.5,32.4,24.8c5.6,1.8,11.3,2.5,15.8-2.2c4.8-5,5.4-11.3,4.2-17.7c-1-5.2-5.7-7.8-11.5-6.6c1,0.7,1.8,1.5,2.7,2.3
	c1.9,2.5,2.2,5.3,0.3,7.8s-4.5,3.8-7.7,2.6c-4.3-1.5-7-5.5-6.6-9.7c0.6-5.1,5.4-9.5,10.7-10c10.1-0.8,17.8,6.4,19.5,17.7
	c1.1,7.4,0.3,14.6-1.3,21.8c-0.6,2.3-0.5,4.8,0.2,7.1c2.5,8.8,4.5,17.6,6.5,26.7l2.3-10.4c0.5-2.2,0.9-4.5,1.5-6.7
	c2.4-8,3.2-15.9,1.3-24.4c-1.6-7-0.9-14.3,1.9-20.8c4.2-9.6,13.8-13.8,21.9-9.6c3.8,1.8,6.3,5.6,6.3,9.9c0.1,3.6-2.1,6.3-5.3,7.9
	c-3.2,1.7-7,1-9-1.8s-1.7-6.2,1.1-9c0.6-0.5,1.2-0.8,1.9-1.2c-5.6-1.7-10.1,0.7-11.6,5.8c-1.8,5.9-0.6,12.3,3.2,17.2
	c4.2,5.6,10.2,5.2,16.1,3.4c13.8-4.2,24.3-13.1,32.7-24.6c1.4-2,2.8-3,5.3-2.8c4.2,0.2,8.5-0.2,12.6-1.3
	c12.9-3.4,17.8-11.2,14.9-24.1c-0.6-2.5-0.1-3.4,2-4.3c3-1.3,5.7-3,8-5.2c6.4-6.1,6.9-14,0.8-20.5C713,47,691.5,45.7,683.8,66.2
	c-0.4,0.9-0.8,1.9-1,2.9c-0.6,4.2-2,7.3-6.4,9.3s-5.8,6.6-6,11.3c-0.3,3.8-0.1,7.7,0.5,11.5c-4.9-4.2-8.1-10-9-16.4
	c-3-19.8,8.4-36.4,28.2-40.2c16.4-3.2,45.4,6.8,50.3,30.4c2.9,14.3-3.6,30.1-17.2,39.3c-11.1,7.3-23.3,12.9-36.2,16.5l-3.8,1.2
	c8.8,0.6,17.5-0.1,26.2,1.2c23.7,3.4,42.8,13.4,51.6,37.3c4.7,12.8,4.5,25.8-1.1,38.3c-6.4,14.3-21.3,19.7-33.7,12.6
	c-9-5.2-13.9-16.8-11.5-26.9c2.7-11.1,10.9-18.4,21.8-19.1c3.6-0.2,7.1,0.6,11.2,2.6c-2.7-6.9-7.1-12.9-12.8-17.6
	c-10.4-8.7-22.3-12.6-35.8-9.3c-10.7,2.6-18.4,12.1-18.7,23.1c-0.1,1.9-0.3,3.2-2.4,4.2c-15.5,7.4-23.4,20.6-24.5,37.1
	c-2.7,41.4,7.8,79.3,31.8,113.3 M530.5,345.5c0.4-0.2,1,0.8,0.6,0.4c-6.7,11.4-4.2,2.4-1.3-0.8c-0.1,0.3-0.4,0.8-0.3,0.9
	C530.1,346.4,530.4,346,530.5,345.5z M723.3,210.3c0.3,0.2,0.5,1,1,0.6s0.2-0.9-0.4-1.1c-0.5-3.9-0.2-7.6,2.1-11
	c0.9-1.2,1.6-2.6,2.2-4c0.9-2.4-0.7-3.8-2.4-5.1c-2-1.5-2.8,0.5-3.6,1.5C717.4,196.3,718,203.8,723.3,210.3z M819.2,277.8
	c-4.1-0.8-8.4-0.9-12.6-0.4c-9.8,1-17.9,5.4-23.5,13.8c-0.7,0.7-1.8,1.1-1.8,2.4c1.4,0.3,1.7-0.9,2.4-1.6
	c11.5-10.2,24.2-11.4,37.8-5c1,0.5,1.9,0.8,2.9,0.1c3.2-2.1,6.4-4.1,9.7-6.2c-2.9-3.2-6.2-6-9.8-8.4c-7.1-4.5-14.8-7.1-23.3-5.6
	c-12.2,2.2-19.8,10.2-25.3,20.6c-6.6,12.6-7.8,26.2-7,40.1l0.9,7c0.4-0.5,0.6-1.1,0.6-1.7c0-2.3-0.1-4.5-0.2-6.8
	c0.9-14.6,4.4-28.3,13.3-40.2c9.3-12.5,23.8-15.9,36.5-8.7L819.2,277.8z M449.6,293.2l1.3,1c0.3-0.8-0.1-1.2-0.8-1.5
	c-9.3-14.6-23.1-17.3-39.3-14.6c9.6-6.6,22.4-6.2,31.5,1.1c10.2,8.1,14.8,19.4,17.7,31.6c1.6,6.8,2.5,13.8,2.7,20.8
	c0.5-2.5,0.8-5.1,0.9-7.7c0.5-14.8-1.8-29-10.2-41.5c-6.8-10.3-16.2-16.7-28.9-15.8c-10.8,0.8-19.2,6.3-26.4,14.4
	c2.8,1.6,5.6,3.3,8.2,5.2c1.9,1.5,3.2,1.3,5.2,0.5c5.9-2.6,12-4.2,18.6-3.4C438,284.1,444.1,287.9,449.6,293.2z M416.9,342.2
	c-0.2-13.8-4.5-27.2-12.2-38.6c-1.6-2.3-2.7-3.2-5.3-1c-2.8,2.3-5.5,4.6-8.1,7.1c-9.8,9.7-21,17.9-33.1,24.4
	c-2.4,1.4-4.6,3.2-6.6,5.3c-1.2,1.2-1,1.9,0,3.1c3.7,4.5,7.8,8.6,12.3,12.2c11.7,9.3,24.6,15.6,39.7,16.8c6,0.5,6.3,0.3,8.6-5.2
	C415.4,358.7,416.9,350.5,416.9,342.2L416.9,342.2z M815.4,343.5c0,2.7,0.2,5.4,0.5,8.1c0.4,3.3,1.2,6.6,2.2,9.7
	c4.4,12.1,2.8,10.9,14.2,9.7c1.1-0.1,2.3-0.2,3.4-0.4c16.5-3.4,30-12.1,41.5-24.3c5.3-5.6,4.9-7.7-1.9-11.5c-0.7-0.4-1.4-0.7-2-1.1
	c-7.5-4-14.5-8.7-21.1-14.1c-6.6-5.5-13-11.3-19.5-17c-2-1.8-3.2-1.9-5,0.7C819.6,315.1,815.3,329.1,815.4,343.5L815.4,343.5z
	 M815.8,294.9c-19.1-5.1-34.9,3.7-39.5,22.3c-4.1,16.4-1.9,32.3,4.7,47.8c1.9,4.5,4.6,6.7,9.6,6c2.7-0.2,5.4-0.1,8.1,0.1
	c6.5,0.2,6.4,0.2,5-6.4c-3.4-16.2-4.3-32.3,0.5-48.4C806.6,308.5,810.5,301.3,815.8,294.9L815.8,294.9z M416.4,294.9
	c18.3,23.5,17,49.5,10.7,76.1c6,0,11.6-0.1,17.3,0c2.3,0.2,4.5-1.2,5.4-3.4c7.1-14.1,9.2-28.9,7.3-44.5
	C454.5,301.4,437.6,289.4,416.4,294.9L416.4,294.9z M671.7,326c0.1-0.4,0.3-0.7,0.3-0.9c-1.4-2.7-2.8-5.4-4.3-8.1
	c-14.2-26.4-26.4-53.5-29.2-83.9c-2.8-29.8,6.3-54.9,28.7-75c2.7-2.4,5.5-4.6,8.4-6.8s5.8-4.1,8.7-6.1c-0.9-0.1-1.9,0-2.8,0.3
	c-24.9,7-43.4,21.2-51.9,46.4c-6.3,18.4-5.2,37.2-0.5,55.9C636.5,277.5,652.1,302.8,671.7,326z M549,146.1l3.8,2.6
	c14.9,10.2,27.2,22.8,34.5,39.6c9.2,21.4,8.3,43.3,3,65.4c-5.7,23.7-16,45.6-27.8,66.8c-0.7,1.3-2.5,3.6-3.3,5.1
	c1.6,0.1,3-1.8,3.5-2.4c7.6-9,14.5-18.7,20.6-28.9c15.3-26.1,25.9-53.6,22.9-84.7c-2.2-22.5-12-40.6-31.1-53.2
	C567.2,151.1,558.3,147.6,549,146.1z M383,286.2c-14.3-4.4-26.4-0.8-36.9,8.4c-9.1,7.9-10,26.5-2.5,35.9c0.5,0.7,0.9,1.1,1.9,0.6
	c2.6-1.3,5.4-2.1,7.4-4.5C363.7,313.9,372.5,299.8,383,286.2z M849.7,286.2c-0.1,1.2,0.9,1.8,1.4,2.6c6,8.4,12,16.7,18,25
	c3.5,4.8,6.9,9.7,11.1,13.8c5.1,5,7.9,4.4,10.3-2c0.5-1.3,1-2.6,1.3-4c2.2-8.8,2.2-17.3-3.9-24.8
	C881.3,288.4,863.7,280.5,849.7,286.2L849.7,286.2z M308,626.3c7.7-14,10.8-28.1,1.6-42.7c-6.7-10.7-15.3-20.2-21.1-32.4
	c-0.9,3.1-1.4,6.3-1.6,9.5c-0.6,11,3.5,20.6,9.1,29.7C302.8,601.4,308.4,612.8,308,626.3z M943.7,551c-4,8.2-8.8,15-13.7,21.7
	c-3,4-5.8,8.2-8.4,12.5c-7.5,12.9-5.6,28,3.2,42c-0.1-5.4,0-10.3,1.3-15.2c2.3-9.1,7.4-16.9,12-24.8
	C944.5,576.1,946.9,564.4,943.7,551z M859.9,314.6l-14.8-20.2c-3.7-5-4.6-5.1-9-0.5c-0.7,0.7-1.3,1.1-0.2,2
	C843.9,302.3,851.1,309.4,859.9,314.6z M372.7,314l0.7,0.7c1.4-1,2.8-2,4.1-3.1c5.7-4.8,11.4-9.6,17.1-14.4c0.8-0.7,2.8-1.3,1.9-2.4
	c-1.5-1.7-3.4-3.2-5.4-4.3c-1.2-0.7-1.8,0.7-2.3,1.5C383.5,299.3,378.1,306.7,372.7,314z M819.7,403.5c-1.8-5-3.3-9.5-4.8-13.9
	c-0.3-0.9-0.8-1.7-1.9-1.4c-3.7,1-7.6,0.3-12,1C806.9,394.4,813.1,399.2,819.7,403.5L819.7,403.5z M412.5,403.5
	c6.6-4.3,12.9-9.1,18.8-14.3c-4.5-0.6-8.3-0.1-12-1c-1.2-0.3-1.4,0.4-1.8,1.4C416,393.8,414.4,398.1,412.5,403.5L412.5,403.5z
	 M508.1,210.5c6.2-5.9,6.9-13.9,2-19.2c-0.9-0.9-1.6-3-3.6-1.6c-1.7,1.1-3,2.5-2.4,4.7c0.3,1.1,0.8,2.1,1.4,3.1
	C507.8,201.5,509.9,205.6,508.1,210.5L508.1,210.5z M528.2,347.8c0.3-0.3,0.6-0.6,0.9-1c0.2-0.4-1.2,1.6-1.5,1.9s0.3-1.6,0-1.3
	L528.2,347.8z M559.2,325.6c0.2,0.2,0.4,0.3,0.7,0.4c0.5,0.1,0.2,0.5,0.2,0.1c0-0.1-0.8-0.4-0.9-0.4
	C558.9,325.9,559.5,325.4,559.2,325.6L559.2,325.6z M860.4,441.6c0-0.4,1.6,1.7,1.5,1.7c-0.3-0.1-0.7-0.3-0.9-0.2
	c-0.4,0.2-0.3,0.5,0,0.7S860.1,441.6,860.4,441.6L860.4,441.6z"/>
<path class="st1" d="M853.8,780.4c-8.6-13.2-8.1-26.6-0.9-40.1c1-1.9,0.6-3.2-0.1-5c-6.5-15.9-7.5-32.1-1.8-48.5
	c8.4-24,29.7-33.7,53.3-24.2c0.3,0.1,0.7,0.3,1.1,0.4c4.6-10.9,2.5-25.1-5.9-33.2c-16.6-16-33.7-17.6-52.9-5
	c-8.7,5.8-12.5,14-9.4,24.7c-15.6-5.7-27.3,0.9-35.9,15.4c-0.5-4.1,0.3-8.8,3.5-16.4c10.3-24.7,28.3-40.7,54.9-44.8
	c31.8-4.9,57.5,22.5,55.6,49.4c-0.3,3.8-1,7.6-1.9,11.4c-0.4,1.7-0.3,2.7,1.2,3.8c19.1,13.8,28.9,33.2,33.2,55.8
	c3.5,18.6,2.2,37.2,0.1,55.8c-3.6,31.5-12.8,61.2-29.4,88.2c-22.6,36.9-54.1,63.7-94.1,80.1c-18.5,7.6-38.1,8.8-57.9,6.9
	c-19.2-1.9-37.3-7.5-54.9-15c-3.1-1.3-6.4-1.6-9.7-1.1c-7.6,1-15.1,0.7-22.2-2.7c-9.5-4.5-13.8-14.3-10.2-23.3
	c0.9-2.8,2.9-5.2,5.6-6.6c3-1.5,6.1-1.9,9,0.5s4.4,6.7,3.4,10c-0.8,2.7-2.4,4.5-5.3,4.9s-4.5-0.7-6.8-4.5
	c-2.9,6.9,1.5,13.2,9.5,13.6c12.1,0.7,18.7-7.7,16-20.6c-2.7-13.7-9.5-26.2-19.5-36c-1.5-1.4-2.2-3.3-2-5.3
	c0.2-5.8,0.6-11.6-0.5-17.3c-2.1-11.2-9.5-16.8-20.7-15c-2.4,0.4-3,0-3.6-2.3c-1-4.1-2.9-7.9-5.6-11.2c-4.8-5.4-10.6-6.2-16.4-1.9
	c-8.3,6.2-11.9,14.8-11.4,24.9c0.6,10.8,7,17.6,16.8,21.3c3.1,1.2,5,2.6,6,6c2.1,7.5,8.5,8.9,15.2,9.4c2,0.2,4,0,6.3,0
	c-10.9,12.1-38,12.2-49.5-14.9c-5,12.4-13.5,20.7-26.8,22.6c-8.3,1.2-15.9-1.4-22.9-7.7c3.5,0,7-0.1,10.5-0.5
	c6.3-0.9,10.4-4.1,12-10.3c0.6-2.3,1.8-3.2,3.9-3.9c8.9-3.2,15.6-8.7,17.9-18.4c2.2-9.6-2.7-22.8-10.8-28.4
	c-6.4-4.4-12.8-3.3-17.4,3c-2.3,3.3-4,6.9-5,10.8c-0.4,1.5-0.9,2.2-2.9,1.8c-12.4-2-20.3,4.4-21.6,16.9c-0.5,5.2-0.9,10.3,0,15.4
	c0.3,2-0.4,3.3-1.8,4.7c-10.9,11-18.2,23.8-20.2,39.3c-1.8,13.7,7.8,19.7,19.1,17.1c6.4-1.4,8.7-5.8,7.2-12.8c-0.1,0-0.3,0-0.3,0
	c-1.9,3.3-4.5,5.4-8.5,3.9c-2.9-1.1-4.5-5.1-3.7-8.9c0.8-4,4.2-7.1,7.9-7.2c5.7-0.1,10.8,5.2,11.3,12c0.6,7.6-2.4,13.5-8.8,17.6
	c-7.5,4.7-15.8,5.2-24.2,4.1c-3.8-0.6-7.6-0.2-11.2,1.3c-18.3,8.1-37.3,13.6-57.2,15.2c-26.9,2.3-53.9-4-77-17.9
	c-52.8-31.2-85.2-76.7-97.8-136.6c-4.5-20.5-6.2-41.6-5.1-62.6c1.4-24.6,9.3-46.7,27.6-64.2c0.9-1.1,2-2,3.2-2.8
	c5.2-2.5,5.8-6.2,4.6-11.7c-6.1-29,15.6-49.8,34.5-54.8s35.8,0.4,51,11.8c15.6,11.8,25.1,27.5,28.1,47c0,0.7,0,1.4,0,2.2
	c-8.4-14.2-19.1-22.5-36.3-16.6c0.4-3.6,1.3-7.1,0.4-10.7c-1.6-6.4-5.5-11-10.8-14.5c-19.5-12.5-38-10-53.7,7.4
	c-7.7,8.6-7.7,19.2-5.3,29.9c0.6,2.6,2.3,0.8,3.3,0.5c8.4-3.2,16.9-4.2,25.6-1.7c16.1,4.6,24.2,16.6,28,31.9
	c3.7,14.5,2.4,29.7-3.6,43.4c-0.6,1.4-1,2.7-0.1,4.3c7.3,13.3,7.7,26.6-0.1,39.8l-1.1,1.3c-0.2,0.4-0.8,0.8,0,1.2
	c0.1,0.1,0.5-0.4,0.7-0.6l1-1c8-8,10.7-17.8,10-28.9c-0.3-4.4-1.1-8.8-2.4-13c8.6,11.5,8.4,27.4-0.6,38.7
	c-9.9,12.4-23.3,18.4-38.3,21c-15.4,2.8-30.3,1.1-44.9-6.4c4.2,21.4,10,41.6,23.1,58.9c11.1,14.7,25.5,22.5,44.3,21.9
	c17.5-0.5,28.7-14.4,25-31.6c-0.4-1.7-0.7-3.5-1.1-5.4c10.5,10.6,13.1,33.7-12.2,47.4c12.5-0.1,26.9-13.6,28.4-26.4
	c1.8-15.5-5.2-27.3-15.7-37.6c-1.9-1.9-4-3.6-6.2-5.5c16.3,0.6,32.6,11.3,39.4,26.2s5.8,29.4-3.8,42.7
	c-7.5,10.3-18.7,14.1-30.9,14.8c-19.7,1.2-36.6-6.2-52-17.7c-0.8-0.6-1.6-1.2-2.5-1.8c-0.1-0.1-4.1-4.2-4.6-4.1
	c-0.1,1.8,5.2,6.8,6.2,7.7c17.2,15.8,37.8,24.7,60.2,29.9c14.9,3.4,30.3,4.7,45.6,3.8c13.6-0.8,26.7-3.8,36.9-14.1
	c5.1-5.1,8.3-11.4,10.6-18.1c0.5-1.5,1-2.2,2.7-2.6c12.7-2.7,19.9-11.3,20.8-24.6c1.3-18.8-10-37.5-27-45.1
	c-0.8-0.3-1.5-1.2-2.7-0.4c3,6.4,4,13,1.8,20c-3.6,11.4-14.2,18.5-25.4,16.7c-10.8-1.7-19.1-12.1-19.6-23.5
	c-0.7-16.7,12.3-27,27.6-29.8c23.9-4.4,45.2,9.7,55.2,33.5c5.8,13.9,8.1,28.5,8.8,43.7c2.2-1.7,1.7-4.1,2-6
	c2.1-12.4,5.8-24.5,11-35.9c2.7-6.3,7-11.8,12.5-16c14.6-10.9,33.3-8.2,44.2,6.4c4.4,6.1,7.7,12.8,10,19.9c1.7-0.8,1.5-2.6,2-3.9
	c3.1-7.5,6.6-14.8,12.7-20.5c14.7-13.6,36.1-10.9,48.1,6.2c7.1,10.1,10.5,21.9,13.4,33.7c1.5,6.2,2.5,12.5,3.8,19.3
	c0.7-13.8,2.1-27.1,6.4-39.9c5.6-16.8,14.8-31,31.9-37.9c15.9-6.4,31.3-5.1,44.8,6.2c8.1,6.8,10.4,16.1,8,26.2
	c-2.2,9.1-8,15.3-17.4,17.8c-13.3,3.4-27.4-7.7-27.9-22c-0.2-5.2,0.9-10.3,3.3-14.9c-4.7,1-8.3,3.4-11.6,6.1
	c-12.4,9.9-18.9,22.8-18.7,38.8c0.2,13.2,8.2,23.1,21,25.8c1.3,0.1,2.3,1,2.7,2.2c6.4,21,21.8,30.2,42.5,32
	c35.2,3.1,68.1-3.7,98.1-23c6.4-4.1,12.3-9,17.3-14.7c0.2-0.1,0.4-0.3,0.5-0.5l1-1l0.7-0.8c0.2-0.3,0.8-0.7,0.1-1.1
	c-0.1,0-0.4,0.4-0.7,0.7l-0.8,0.7l-0.8,0.7l-0.9,0.6c-10.9,8.7-22.5,15.9-36.1,19.2s-27.1,3.2-40-3.3c-15.1-7.5-20.3-25.4-19.1-37.9
	c2-21.6,20.4-39,43.7-40.9c-4.8,4.2-9.4,8.2-13.1,13c-5.1,6.8-8.8,14.2-9.4,22.8c-0.9,14.8,6.6,26.2,20.5,32c2,0.8,4.1,1.3,6.2,1.9
	c0.5,0.6,1.5,0.7,2.2,0.2l-1.5-0.9c-7-4-12.8-9-16-16.6c-4.5-10.7-2.5-20.5,4.9-30.5c-0.5,3.4-0.8,5.8-1.1,8.2
	c-2.3,16.4,8.3,28.7,24.8,29.3c20.9,0.8,36.1-8.8,47.4-25.6c10.2-15.1,15.6-32.2,19.3-49.8c0.3-1.4,0.5-2.8,0.8-4.2
	c0-0.3-0.1-0.6-0.2-1c-11.8,6.1-25.2,8.5-38.5,6.9c-17.9-2-34-8.2-45.2-23.2c-8.1-11-7.9-26.6,0.2-36.9c-3.9,15.6-3.6,30.1,8.3,42.2
	l0.6,0.6l1.1,1.7c0.4-0.1,1,1.1,1.4,1c-0.2-0.2-0.6-1.5-0.8-1.7l0,0c2,3.8-0.5,0.9-1-1.4L853.8,780.4z M334,874.4l0.7,0.8l0.7,0.8
	c0.2,0.4-2.5-2.5-2-2.8c0.7-0.6,3,2.4,2.6,2.1l-0.8-0.7c-1.2-0.9-1.3,0.2-1.5,0s0.2-1.6-0.3-0.9C333.3,873.8,333.7,874.2,334,874.4z
	 M459.6,837.4l-0.9,0.2l0.2,0.4L459.6,837.4c-0.1,0.3-0.5,0.9-0.4,1c2.5,2.8,6.2,4.2,10,3.8c3.9-0.2,7.5-2.4,9.3-5.9
	c0.5-0.8,0.3-1.8-0.3-2.4c-2-2.9-4-2.9-7.4-0.1S464.3,839.4,459.6,837.4L459.6,837.4z M907.4,680.8c-8.2,16.3-19.2,30-32.2,42.1
	c-2.7,2.6-5.2,5.4-7.5,8.3c-1.2,1.5-1.2,2.5,0.2,3.9c3.6,3.9,7.6,7.4,12,10.3c16,10,32.9,13,51,6.6c1.8-0.5,3.2-2.1,3.2-4
	c1.3-8.3,0.2-16.5-1.8-24.5C928.3,707.2,919.7,692.4,907.4,680.8z M324.4,680.6c-17.9,18.8-28.2,40.2-26.7,66.4
	c0.1,2.7,1.1,4.3,4,5.2c22.8,7.5,42.4,1.6,59.5-14.2c5.6-5.2,5.7-3.9,0.3-10.1c-6.1-7-13.2-13-19.1-20.2
	C335.4,699.4,329.4,690.3,324.4,680.6L324.4,680.6z M876.3,903.8l-3,1.5c-17,8.5-34.3,15.9-52.7,20.7c-15.5,4-31.2,6.3-47.3,4
	c-21.9-3.2-38.9-14.4-51.8-32.2c-5.5-7.7-9.8-16-13.9-24.6c0.1,2.1,0.3,4.1,0.6,6.2c0.4,2.4,0.9,4.8,1.5,7.2
	c5.5,22.2,16.7,40.2,38.1,50.3c15.9,7.5,32.8,8.3,49.7,5.5C827.5,937.3,853.1,922.9,876.3,903.8z M356.8,904.4l-0.6,0.8
	c0.4,0.3,0.9,0.6,1.3,0.9c18.1,13.9,37.5,25.3,59.5,32.2c16.4,5.1,33.2,7.3,50.1,4c26.5-5.2,43.6-21.3,52.4-46.7
	c2.5-6.9,4-14.1,4.4-21.4c-2.8,5.2-5.3,10.5-8.3,15.5c-16.7,28.3-41.4,42.3-74.3,41c-19.4-0.7-37.8-6.2-55.7-13.3
	C375.8,913.6,366.3,909,356.8,904.4L356.8,904.4z M859.8,747.5c-1.5,2.7-1.7,5.4-2,8c-2.2,14.4,3.5,29.1,18.3,35
	c17.4,7,34.8,6,51.7-2.6c1.2-0.6,2.2-1.2,2.3-2.8c0.4-4.1,0.9-8.2,1.5-12.2c0.6-3.5-0.5-4.3-4-3.7c-11.4,2.1-23.1,1.8-34.4-0.7
	C879.9,765.6,868.2,758.2,859.8,747.5L859.8,747.5z M372.3,747.3c-14.2,17.8-33,23.7-54.4,23.3c-4.9-0.1-9.7-0.6-14.5-1.5
	c-2.6-0.5-3.8-0.2-3,3c0.6,3.5,1,7.1,1.2,10.7c0,2.6,1.6,4.9,4,5.9c15,7.3,30.6,8.1,46.4,3.4c11.8-3.5,19.6-11.5,22-23.9
	C375.3,761.3,374.7,754.1,372.3,747.3L372.3,747.3z M861.9,726.6c5.8-6.3,11.5-12.2,16.9-18.4c8.1-9,15-18.9,20.7-29.6
	c0.5-1,2.2-2.3,0.3-3.6c-9.2-6.1-21.3-9.1-31.1,0C855.1,687.8,852.1,709.4,861.9,726.6L861.9,726.6z M370,726.5
	c10.4-16.7,6.6-38.2-6.8-51.3c-7.8-7.6-18.3-7.7-29.5-1.2c-2.3,1.3-2.8,2.3-1.4,4.9C341.9,697,356,711.7,370,726.5z M773.5,837.8
	c-4.1,0.5-7.3,0.2-10-2.2c-1.3-1.1-2.6-2.1-3.9-3.1c-1.9-1.4-3.5-1-5.1,0.6s-1.2,2.9,0.1,4.6C759,843.6,766.7,843.9,773.5,837.8z"/>
<path class="st2" d="M468.2,733.6c4.5-1.4,9.2-1.6,13.9-2.4c8.8-1.5,17.5-2.7,26.3-4c1.8-0.3,2.5-1,2.8-2.9
	c2-12.2,2.9-24.6,3.6-36.9c2.9-46.5,2.7-93.1,2.3-139.7c-0.2-23.9-1.7-47.7-3.7-71.5c-0.4-4.2-1.9-5.7-6.1-6.2
	c-11.7-1.5-23.4-3.5-35.1-5.4c-1-0.2-2.4,0-2.9-1.6c1.1-1,2.4-0.5,3.6-0.5c48.4,0,96.9-0.1,145.3,0c22.7,0.1,44.8,3.7,65.8,13
	c34.8,15.4,57.4,41.6,67.6,78.2c10.7,38.3,9,76.2-8.6,112.3c-18.7,38.4-49.7,60.8-91.9,67.7c-7,1.1-14.1,1.6-21.2,1.5
	c-52.4,0-104.9,0-157.3,0h-4.4C468.2,734.5,468.2,734.1,468.2,733.6z M552.7,603.5c0,19.1,0.1,34.1,0,49c-0.1,19.4,0.2,38.7,2.2,58
	c0,1.9,1.3,3.6,3.1,4.2c22.5,9,45.9,12.2,69.6,7.4c37.1-7.5,63-29.7,77.3-64.5c14.9-36.3,15.2-73.7,3-110.8
	c-8.1-24.5-24-43.3-46.5-56.3c-17.5-10.1-36.6-15-56.5-16.5c-14.8-1.1-29.6-0.5-44.1,3.1c-2.1,0.5-3.9,1-4.2,4
	c-1.5,15-2.3,30.1-3,45.2C552.2,553.4,553,580.5,552.7,603.5L552.7,603.5z M586.3,467.2c1.1,1.6,2.4,1.3,3.6,1.3
	c13.3,0,26.5,1.4,39.5,4c40.5,8.3,68.7,31.3,83.7,70c12.2,31.4,13.5,63.6,5.9,96.1c-6.7,29-22,52.7-46.2,70
	c-18.5,13.2-39.3,20.7-62.4,20.2c-3.2-0.1-6.4-0.5-9.8,0.4c0.5,0.8,1.4,1.2,2.4,1c10.3,0.1,20.6,0,30.8-1.4
	c32.1-4.3,58.1-19.3,77.4-45.4c15.1-20.4,22.7-43.7,25-68.8c2.3-26.2-0.5-51.7-11.6-75.9c-13.4-29.1-33.6-51.2-64.6-62
	c-18.3-6.4-37.2-8.9-56.5-9.5C597.8,467,592,467.1,586.3,467.2L586.3,467.2z M534.5,599.1V476.7c0-7.3,0-7.1-7.2-7.4
	c-3.8-0.2-4.9,0.7-4.9,4.8c0.1,82.1,0.2,164.2,0.1,246.3c0,7.7,0,7.4,7.5,7.8c3.9,0.2,4.5-1.2,4.5-4.7
	C534.5,681.9,534.5,640.5,534.5,599.1z"/>
<path class="st1" d="M953.1,506.4c-2.1-5.8-4.1-11.7-6.4-17.5c-9.5-24-26.9-40.6-49-52.9c-10.1-5.6-20.4-10.7-30.1-16.9
	c-6.4-4.1-12.6-8.5-16.6-15.3c-1.4-2.4-2.8-4.8-2.8-8.6c8.1,13.4,20.3,20.3,33.5,25.8s26.3,11.4,36.8,23c0-4-0.1-7,0-10
	c0.2-3.3,2.2-5.6,4.6-7.7c-21.9,1.3-40.8-4.4-55.3-21.3c-2.8-3.3-2.8-3.3,1.3-4.8c11.8-4.4,23.7-6.6,36-2.1
	c5.7,2.1,10.8,5.6,14.8,10.3c-4-0.6-7.2-2.5-10.7-1.1c-0.6,0.2-1.2,0.3-1.8,0.6c-1.8,0.7-9.2,0.9-11.2,0.2c-1-0.3-2-0.6-3-0.8
	c-2.5-0.5-5.9-1-6.7,1.2c-1,2.6,1.2,5.4,3.6,7c6.1,4,12.9,4.1,19.7,3.1c8.6-1.3,17.1-3.2,26-2c15,2,26.2,17.1,22.2,30.7
	c-2.2,7.3-9.2,11.9-17.4,11c3.2-2.7,6-5.4,7.6-9.1c1.7-3.3,1.9-7,0.7-10.5c-1.7-4.6-4.7-8.3-9.9-8.6s-8.7,2.7-11.2,6.9
	s-2.5,8.9,0.5,13c5.3,7.1,10.8,14.1,15.3,21.7C949.9,482.4,953.6,493.8,953.1,506.4z"/>
<path class="st1" d="M312.7,407.7c12-12.5,26.6-14.1,42.6-9.9c3,0.8,5.8,1.9,8.8,2.8c2.1,0.6,2.9,1.2,1.1,3.5
	c-8.3,10.5-19.1,16.9-31.8,20.3c-7.9,2.2-16.1,2.8-24.2,1.9c4.8,4.8,5.3,10.1,4.4,15.7c-0.4,0.4-0.5,1.1-0.3,1.6l1-0.7
	c9.9-10.3,22.3-16.2,35.2-21.5c7.7-3.2,14.5-7.8,21.8-11.9c4.9-2.8,8.8-8,12.9-14.5c-1.8,9.3-7.2,15-13.5,19.8
	c-11,8.4-23.5,14-35.5,20.8c-16.2,9.2-30.8,20.1-41,36.1c-6.4,10-10.8,20.9-14.4,32.2c-0.3,1-0.7,1.9-1.2,2.7
	c-0.5-10,2.1-19.3,6.3-28.3c4.8-10.1,11.6-18.8,18.2-27.6c4.1-5.5,3.8-10.6-0.5-15.8c-3.5-4.1-9-5.8-13-3.9
	c-4.9,2.3-8.3,9.1-7.2,14.2c1.2,5.5,4.6,9.6,9,13.1c-10.2,1.5-18.5-6.3-18.1-16.8c0.5-12.7,10.2-22.9,22.9-24.6
	c8.8-1.2,17.1,0.6,25.6,2c6,1,12,0.8,17.8-1.7c3.8-1.7,7.4-6.3,6-8c-2.5-3.1-6.1-1.8-9.2-0.9c-3.9,1.3-8.1,1.2-11.9-0.3
	c-3.9-1.6-7.5-0.3-11.3,0.6C313.1,408.1,312.9,407.9,312.7,407.7z"/>
<path class="st1" d="M579.5,1011.6h20.8c-6,0.7-5.8,5-5.7,9.4c0.1,22.6,0,45.2,0,67.8c0,6.1,0.5,6.7,5.7,8.7c-4.5,0-9-0.1-13.5,0
	c-1.9,0-1.6-1.2-1.6-2.3c0-3.2,0-6.4,0-10.4c-2.4,2.4-4.2,4.4-6.2,6.2c-10.3,9.2-26.6,10.9-36.8,4c-8.3-5.6-10.8-14-10.9-23.4
	c-0.2-17.2-0.1-34.3,0-51.5c0-3.9,0.4-8-5.2-8.5h21c-1.8,1.4-4.6,0.7-5.5,3.1c-0.8,2.1-0.5,4.3-0.5,6.5c0,16.6-0.1,33.3,0.1,49.9
	c0.1,7.3,2.2,14,8.3,18.7c7.4,5.7,15.4,5.6,23.6,1.9c1.7-0.9,3.4-1.9,4.9-3c5.2-3.4,7.6-7.7,7.3-14.4c-0.6-16.1-0.2-32.3-0.2-48.4
	c0-2.2,0-4.4-0.1-6.6C584.8,1015.7,584.6,1011.8,579.5,1011.6z"/>
<path class="st1" d="M771,1098.5l-63.7-72c-1.3,0.6-0.7,1.6-0.7,2.3c0,19.6,0,39.2,0,58.8c0,0.3,0,0.5,0,0.8c0.1,4,0.1,8,5.6,8.7
	h-15.2c1.7-1.2,4.7-0.6,5.2-3.2c0.4-2.3,0.5-4.6,0.5-6.9c0-19,0-37.9,0-56.9c0-1.7,0-3.3-0.1-5c-0.3-8.7-2.4-11.3-10.5-13.7
	c4.5,0,9.1,0.1,13.7,0c1.8,0,2.4,1.3,3.3,2.3c16.9,19.1,33.8,38.2,50.7,57.3c2.1,2.4,4.3,4.8,6.4,7.2c1.5-0.5,0.9-1.7,0.9-2.6
	c0-18.5,0-36.9,0-55.4c0-4,0-8-5.5-8.6h15c-6.2,1-5.8,5.8-5.9,10.3c0,23.9,0,47.7,0,71.6C771,1094.8,771,1096.1,771,1098.5z"/>
<path class="st1" d="M517.3,1049.3c-0.5,18.8-6.8,35-24,44.4c-21.6,11.8-50.3,5.4-58.3-23c-6.2-22.1,6.1-53.3,32.4-59.6
	c23.1-5.5,42.7,5.5,48.6,26.3C517,1041.3,517.5,1045.3,517.3,1049.3z M512,1062.4c0-17.1-5.4-28-15.2-36.7
	c-7.7-6.8-16.6-11.5-27.1-11c-12.5,0.6-24.5,10.6-28.2,22.8c-6.2,19.9,5.9,46,25,54.2c4.3,2,9.1,2.8,13.9,2.5
	C498.6,1092.3,512.1,1077,512,1062.4z"/>
<path class="st1" d="M854.7,1097.3h-18c2.6-1.4,2.3-3.3,1.5-5.6c-4.1-10.6-8.1-21.3-12.1-31.9c-0.3-1.3-1.5-2.1-2.8-1.9
	c-6.4,0.1-12.9,0.1-19.3,0c-1.7,0-2.2,0.8-2.7,2c-4,10.8-7.9,21.6-12.1,32.3c-0.9,2.3-0.8,3.8,1.6,5h-11.3c4.2-1.2,5.7-4.7,7-8.3
	c9.4-25.1,18.8-50.3,28.3-75.4c0.4-1.1,0.3-2.8,2-2.9s1.4,1.7,1.8,2.7c9.4,24.6,18.7,49.2,28.1,73.8
	C848.2,1091.3,849.3,1096,854.7,1097.3z M824.2,1055.5l-10.7-28.4l-10.6,28.4H824.2z"/>
<path class="st1" d="M651.7,1023.2c-1.4-1.4-2.8-2.9-4.2-4.3c-8.3-7.9-21.3-7.9-28.4-0.1s-5.2,19.5,4,24.1c6,3,12.6,5,18.8,7.7
	c18.7,8.2,18.3,30.6,6.8,41.3c-4.6,4.3-10.3,5-16,5.3c-7.3,0.4-14.7,0.2-22,0.1c-1,0-2.7,0.6-2.7-1.2c-0.1-7.8,0-15.6,0.5-23.4
	c0.6,2.4,1,4.8,1.3,7.2c1.3,7.1,5.3,11.5,12.3,13.1c6.2,1.5,12.5,1.8,18.6-0.5c6.2-2.3,10.1-6.8,11-13.6c1-7.4-2.2-12.9-8.6-16.1
	c-6.6-3.3-13.7-5.7-20.3-8.9c-8.9-4.3-12.3-12-12.1-21.4s4.4-16.5,13-20.7c6.1-2.9,12.4-2.2,18.9-1.3c4.2,0.6,7.3,1.9,7.9,6.6
	c0.3,1.9,1.3,3.7,1.9,5.6L651.7,1023.2z"/>
<path class="st1" d="M991.5,1023.3c-1.5-1.6-2.8-3.3-4.4-4.8c-8.2-7.5-20.9-7.3-27.8,0.2c-7.2,7.9-5.3,19.6,4.2,24.3
	c7.2,4.1,13.1,5.5,18.8,7.7c18.7,8.2,18.2,31.3,5.8,41.9c-4.3,3.7-9.6,4.3-14.8,4.6c-7.6,0.4-15.2,0.2-22.8,0.2
	c-1.1,0-2.5,0.4-2.5-1.5c0-7.7,0-15.4,0.6-23.1c0.7,2.6,0.8,5.2,1.4,7.8c1.4,6.3,4.9,10.5,11.3,12.2c6.2,1.7,12.4,2,18.6,0
	c6.7-2.2,11-6.7,11.8-13.7c1-7.8-2-13.1-9.1-16.6c-6.2-3-12.7-5.3-19-8.1c-8.6-3.9-12.6-11-12.9-20.2c-0.4-9.4,3.2-16.8,11.5-21.6
	c6.4-3.7,13.2-3,20.2-2.1c4.4,0.6,7.5,2,8.2,6.9c0.4,1.8,1,3.6,1.8,5.3L991.5,1023.3z"/>
<path class="st1" d="M886,1011.6h21.2c-0.5,1.1-1.7,0.7-2.4,1c-2.2,0.7-3.4,2-3.4,4.5c0,22.2,0,44.4,0.1,66.5
	c0,6.5,3.2,9.6,9.7,10.8c5.5,1.1,11,0.8,16.5,0.5c8-0.5,11.7-5,12.3-13.9c0.1-1.5-0.4-3,1.1-4.9c0.8,4,0.4,7.7,0.4,11.2
	c0,3.3,1.5,7.7-0.7,9.6c-1.8,1.6-6.1,0.5-9.3,0.5c-15.2,0-30.3,0-45.7-0.3c5.5-0.4,5.8-4.2,5.8-8.3c0-23,0-45.9,0-68.8
	C891.6,1016,891.9,1011.8,886,1011.6z"/>
<path class="st1" d="M225.8,1011.6h21.6c-2,1.3-4.6,0.9-5.7,3s-0.5,4.3-0.5,6.5c0,20,0,40,0,60c0,9.4,2.7,12.6,11.9,13.7
	c5,0.6,10,0.6,15,0.1c7.8-0.7,11.2-5.1,11.8-14c0.1-1.4-0.3-3,1.5-4.2c0,6.5,0,12.9,0,19.4c0,2-1.5,1.4-2.5,1.4
	c-17.6,0-35.3,0-53.6,0c2.1-1.5,4.8-1.1,5.6-3.4c0.7-2.1,0.4-4.3,0.4-6.5c0-22.7,0-45.4,0.1-68.1
	C231.4,1015.4,230.8,1012.2,225.8,1011.6z"/>
<path class="st1" d="M400.5,1085c-1.9,3.1-3.4,5.8-5,8.4c-0.4,0.7-0.9,1.2-1.6,1.5c-16.2,4.2-32.5,6.4-48.9,1.2
	c-14.8-4.7-22.5-15.8-25.4-30.2c-3.1-15.3,0.5-29.4,10.7-41.4c7.6-8.9,17.6-13.5,29.2-14.6c8.1-0.7,16.2,0.3,23.8,3.1
	c3.9,1.4,6.3,3.5,7.1,7.5c0.2,1.2,0.7,2.4,1.3,4.8c-1.6-1.5-2.5-2.3-3.4-3c-20.4-18.2-52.5-10.7-60,14.5c-5,16.9,0.3,32.2,10.6,45.8
	c5,6.9,12.4,11.5,20.8,12.9c14.5,2.4,28.1,0.3,39.4-10.2C399.2,1085.2,399.5,1085.2,400.5,1085z"/>
<path class="st1" d="M624.7,1122.1c6.5-4,12.3-8.1,18.7-11.1c7.3-3.4,14.8-5.5,22.7-2.7c8.4,3,14,8.8,15.7,17.9
	c2.1,11.1-7.1,22.4-17.7,21.5c-5.4-0.4-9.7-4.5-10-9.5c-0.3-5.4,2.4-9.2,7.6-10.4c2.4-0.6,3.3-0.3,8.2,2.7c0.8-1,0.4-2.5,1.7-3.3
	c-0.2,1.1-0.4,2.1-0.3,3.2c0.3,2.4,1.9,4.1,4.4,4c2.3-0.1,3.7-1.5,4.1-3.9c0.8-5.8-3.5-10.9-9.7-11.6c-6-0.7-11.5,1.1-16.5,4.1
	c-6,3.5-11.7,7.4-17.7,10.9c-4.2,2.5-8.5,4.5-13.7,4.5c-3.2,0.1-6.4-1-8.9-3c-1.6-1.3-2.8-1.3-4.8-0.5c-7.6,3.3-15.4,5.3-23.9,4.3
	c-9.1-1.1-16-7.4-17.4-16.4c-1.1-7.3,5.8-13.8,12.3-11.5c4.1,1.4,6.3,5.9,4.9,10c-0.4,1.1-1,2.1-1.8,3c0.2-1.8,1.5-3.3,1-5.2
	c-0.8-3.5-3.8-6.2-7-6c-3.5,0.2-6.1,3-6.5,7c-0.7,7.2,5,14.7,12.8,16.6c8.9,2.1,17-0.6,24.8-4.3c2.1-1,0.7-2,0.3-3.1
	c-2-5.7-0.4-12,3.9-15.5c4.8-3.9,12-1.8,13.4,3.8C625.3,1119,624.8,1120.2,624.7,1122.1z M615.8,1122.4c1.8,1.6,3.7,1.8,5.5,0.2
	c1.7-1.3,2.4-3.6,1.6-5.6c-1.1-3-5.3-4.4-8.5-2.9c-5.1,2.3-7.7,9.9-5.2,14.9c0.7,1.4,1.3,2,2.9,0.9c2.3-1.5,4.7-2.8,7.2-4.3
	c-1.4-1.1-3.2-1.1-4-2.6L615.8,1122.4z M612.3,1133.1c6,4.4,11.5,3.3,17.2,0.9c6.9-2.9,12.9-7.3,19.4-10.9
	c8.7-4.8,17.6-8.3,27.9-3.7c-3.9-6.8-12.6-10.3-20.6-8.6C639.8,1114.6,627.3,1125.8,612.3,1133.1z M670.9,1137.9
	c-0.9-4.8-3.4-7.8-6.8-8s-6.7,2.6-7.4,6.5c-0.8,4.1,3.2,8.6,8,9c5.8,0.6,10.5-2.8,13.5-9.9c-2.6,1.2-4.7,0.2-6.8-1L670.9,1137.9z"/>
<path class="st1" d="M620.8,976.3c0-6,1.6-8.5,5.8-9.6c3.9-1,8.1,0.8,10.4,4.8c2.4,3.9,2.8,8.7,1,12.9c-0.3,0.8-1.5,1.6,0.2,2.4
	c8.4,4,16.9,6.9,26.3,4.1c7.6-2.3,12.5-9.6,11.5-16.6c-0.7-4.8-3.9-7.3-8.3-6.3c-3.6,0.8-5.8,5.1-4.5,9.2c0.1,0.5,0.3,0.9,0.5,1.8
	c-3.1-3.7-3.2-7-0.7-10.3c2.4-3.1,6.5-4.1,10-2.4c4.9,2.3,7.2,7.9,5.4,13.8c-2.9,9.9-13.7,15.9-25.3,14c-5.4-0.8-10.7-2.4-15.8-4.6
	c-1.4-0.6-2.5-0.8-3.8,0.2c-5.4,4.3-11.3,4.2-17.4,1.8s-11.4-6.4-16.9-9.9c-5.3-3.4-10.7-6.6-16.9-7.9c-7.7-1.7-14.4,1.9-15.8,8.5
	c-0.5,2.8-0.4,5.7,2.9,6.6c3.1,0.9,4.8-0.9,5.6-3.8c0.1-0.4-0.2-1.1,0.5-1.2c0.1,0,0.4,0.5,0.5,0.8c0.5,1,1,0.2,1.5-0.1
	c3.8-3,7.7-2.8,11.3,0.1c2.9,2.1,4.2,5.8,3.2,9.3c-1.2,4.7-4.4,7.2-9.1,8.2c-10.3,2.2-17.3-7.5-18.4-16.2c-2-16,15-28.3,31.4-23
	c8.4,2.7,15.7,7.5,23,12.2C619.3,975.5,619.8,975.8,620.8,976.3z M629.8,977.5l0.4,0.8c-0.8,1.4-2.4,1.2-4,1.9
	c2.8,1.7,5.2,3.1,7.6,4.5c1.1,0.7,1.9,0.9,2.8-0.6c3.2-5.3-0.7-14.7-6.8-15.9c-2.5-0.5-5,0.6-6.3,2.7c-1.3,1.8-1.1,4.2,0.5,5.7
	C625.6,978.6,627.7,978.7,629.8,977.5L629.8,977.5z M633.4,988c-9-5.3-17.7-10.5-26.4-15.5c-6.1-3.5-12.5-6.2-19.7-7.2
	c-5.9-0.8-15.8,2.9-18.1,9.2c7-4.1,13.8-2.7,20.5-0.2c5.4,2,10.2,5.2,15.2,8.2s9.6,5.9,15.1,7.5C624.5,991.2,629,991.4,633.4,988z
	 M567.7,990.6c0.9,2.3,2.3,4.3,4,6.1c3.9,3.8,8.8,4.7,12.9,2.5c3.8-2.1,5.5-5.7,4.3-9.3c-1-3-4.6-5.7-7.3-5.3
	c-3.4,0.4-5.7,3.5-6,7.8c-2.4,1.3,0.3-4-2.9-2C571.3,991.1,569.5,990.4,567.7,990.6L567.7,990.6z"/>
<path class="st1" d="M404.7,1011.5H426c-2.1,1.4-4.9,0.9-5.8,3.4c-0.8,2.1-0.4,4.3-0.4,6.5c0,22.3,0,44.7,0,67c0,6.7,0,6.7,6.2,8.9
	h-21.3c4.5-0.7,5.4-3.7,5.5-7.7c0.1-23.9,0.6-47.7-0.3-71.6C409.7,1013.4,409.2,1013,404.7,1011.5z"/>
<path class="st1" d="M310.5,1097.3h-20.9c5.6-0.5,5.4-4.7,5.5-8.5c0.1-15.5,0.2-31,0.1-46.5c0-8,0.2-16-0.3-24
	c-0.2-3.7-1.3-6.1-5.3-6.7h20.9c-6.2,0.3-5.8,4.7-5.8,9.1c0.1,22.8,0,45.7,0,68.5C304.6,1095,305,1095.5,310.5,1097.3z"/>
<path class="st1" d="M859.2,1011.5h21.3c-2.1,1.4-4.9,0.9-5.8,3.4c-0.8,2.1-0.4,4.3-0.4,6.5c0,22.3,0,44.7,0,67c0,6.7,0,6.7,6.2,8.9
	h-21.4c5-0.5,5.5-4.1,5.5-8c0.1-23.7,0.5-47.5-0.2-71.2C864.4,1014.5,863.2,1012.2,859.2,1011.5z"/>
<path class="st1" d="M828.8,542.9c-0.2,5.3-1.2,9.7-0.7,14.2c1,7,3.8,13.6,8.3,19.1c2.8,3.5,4.2,7.4,2.3,11.8
	c-1.7,3.8-4.7,6.3-8.8,6.6c-3.9,0.3-6.8-1.9-8.7-5.3c-6-10.8-6.3-21.9-1.3-33.2C822.2,551.3,825.2,546.8,828.8,542.9z"/>
<path class="st1" d="M403.4,543.6c7.3,7.9,12,17,12,28.1c0,5.9-1.4,11.8-4.3,17c-3,5.5-8,7.4-12.8,4.9c-5.2-2.6-7.3-8.9-4.8-14.2
	c0.5-1.2,1.2-2.2,2-3.2C403.5,566.6,405.1,555.6,403.4,543.6z"/>
<path class="st1" d="M973.3,296c7.3-7.5,6.2-14.7,1.4-22.1c-0.8-1.4-1.4-3-1.8-4.6c-1.1-4.2,0.4-7.8,3.8-9c4.4-1.6,8.5,0,10.3,4.1
	c1.7,3.9,1.7,7.9,0.9,12.1c-0.8,5.5-3.1,10.6-6.5,15C979.5,294,976.6,295.7,973.3,296z"/>
<path class="st1" d="M258.3,296c-4.5-0.7-7.1-3.1-9.1-6.1c-4.3-6.2-6.2-13.7-5.5-21.1c0.3-3.6,1.6-6.9,5.2-8.3
	c2.8-1.2,6-0.7,8.3,1.3c2.8,2.4,2.1,5.6,1.6,8.6c-0.4,1.6-1.1,3.1-2,4.5C251.9,283.6,252.1,287.8,258.3,296z"/>
<path class="st1" d="M921,271.4c9,3.9,12.7,11.4,13.1,20.5c3.3,17.9-2.6,27.7-15.2,34.9c-3.1,2.4-6.7,3.5-11.7,4.1
	c10.4-7.5,17.3-16.3,20.5-27.8C931.1,291.3,928.6,280.9,921,271.4z"/>
<path class="st1" d="M848.3,633.8c3.7-8.2,9.8-11.7,17.2-12.5c14.4-1.6,33.8,9,37.2,26.4c0.3,1.6,0.3,3.2,0.1,4.7
	c-5.4-10-12.3-18.2-22.8-23C868.9,624.5,858.6,625.7,848.3,633.8z"/>
<path class="st1" d="M310.5,272.4c-11.7,13.6-9.3,33,2.1,47.4c3.4,4.3,7.5,8,12.1,11c-5.2-0.2-10.1-2.3-14-5.8
	c-10.8-9.5-15.9-27.6-11.4-40.9c1.9-5.5,5-10.1,10.7-12.3L310.5,272.4z"/>
<path class="st1" d="M383.2,633.1c-17.2-13.9-41.2-5.1-53.9,19.7c-0.4-3.9,0.3-7.9,2-11.4c6.3-13.8,24.4-22.9,38.7-19.4
	C375.9,623.3,380.9,627.5,383.2,633.1z"/>
<path class="st1" d="M861.4,796c20.1,11,40.7,10.7,61.9,3.1C910.7,815.3,872.2,813.2,861.4,796z"/>
<path class="st1" d="M308.2,798.9c22.1,8,42.9,8,63.3-3.7C361.5,812.3,323.2,816.2,308.2,798.9z"/>
<path class="st1" d="M765.9,361.6c-18.1-21.7-21.1-43.9-6-65.3C752,318.6,756.6,339.8,765.9,361.6z"/>
<path class="st1" d="M466.7,359.8c9-20.8,13.3-40.3,5.2-63.8c8.9,9.5,12.4,27.9,8,41.8c-2.5,7.6-6.3,14.6-11.2,20.9
	C468.3,359.3,468,360.8,466.7,359.8L466.7,359.8z"/>
<path class="st1" d="M802.5,448.4c8.1,12.2,18.4,19.8,33.3,20.3C821.3,474.3,806.9,465.6,802.5,448.4z"/>
<path class="st1" d="M429.5,448.7c-4.7,15.9-16.4,25.6-32.9,20.1C412.1,466.9,417.5,463.6,429.5,448.7z"/>
<path class="st3" d="M310,271.8c0.2-0.6,0.7-0.8,1-0.5s-0.3,0.7-0.5,1L310,271.8z"/>
<path class="st4" d="M466.7,359.7l-0.1,0.9L466.7,359.7L466.7,359.7z"/>
<path class="st5" d="M313.2,408.2c-0.2,0.6-0.5,0.7-1.1,0.5l0.6-1C312.9,407.9,313,408.1,313.2,408.2z"/>
<path class="st0" d="M815.3,343.5c-0.1-14.3,4.2-28.3,12.3-40.2c1.8-2.6,3-2.5,5-0.7c6.5,5.7,12.9,11.5,19.5,17
	c6.5,5.4,13.6,10.2,21.1,14.1c0.7,0.4,1.4,0.7,2,1.1c6.8,3.8,7.2,5.9,1.9,11.5c-11.4,12.2-24.9,20.9-41.5,24.3
	c-1.1,0.2-2.3,0.4-3.4,0.4c-11.4,1.1-9.8,2.4-14.2-9.7c-1.1-3.2-1.8-6.4-2.2-9.7C815.4,348.9,815.3,346.2,815.3,343.5z"/>
<path class="st0" d="M815.7,295c-5.3,6.3-9.2,13.6-11.6,21.5c-4.8,16.1-3.9,32.2-0.5,48.4c1.4,6.6,1.5,6.5-5,6.4
	c-2.7-0.2-5.4-0.3-8.1-0.1c-5,0.6-7.7-1.6-9.6-6c-6.6-15.5-8.8-31.4-4.7-47.8C780.9,298.7,796.6,289.9,815.7,295z"/>
<path class="st0" d="M416.3,294.9c21.2-5.5,38.1,6.5,40.7,28.3c1.9,15.6-0.2,30.4-7.3,44.5c-0.9,2.2-3.1,3.6-5.4,3.4
	c-5.6-0.1-11.3,0-17.3,0C433.3,344.4,434.6,318.4,416.3,294.9z"/>
<path class="st0" d="M671.7,326c-19.6-23.2-35.2-48.5-42.7-78.2c-4.7-18.6-5.7-37.4,0.5-55.9c8.5-25.1,27.1-39.4,51.9-46.4
	c0.9-0.3,1.8-0.4,2.8-0.3c-2.9,2-5.9,3.9-8.7,6.1s-5.7,4.4-8.4,6.8c-22.4,20-31.5,45.2-28.7,75c2.9,30.4,15.1,57.4,29.2,83.9
	c1.4,2.7,2.9,5.4,4.3,8.1C672,325.3,671.8,325.6,671.7,326z"/>
<path class="st0" d="M549,146.2c9.3,1.5,18.2,5,26,10.3c19.1,12.6,29,30.7,31.1,53.2c3,31.1-7.6,58.6-22.9,84.7
	c-6.1,10.2-13,19.8-20.6,28.9c-0.5,0.6-2,3.2-3.6,3.1c0.8-1.6,2.6-4.5,3.3-5.8c11.8-21.2,22.1-43,27.8-66.8
	c8.4-23.3,7.7-44.6-3-65.4c-7.2-16.9-19.5-29.4-34.5-39.6L549,146.2z"/>
<path class="st0" d="M849.7,286.3c13.9-5.7,31.5,2.1,38.4,10.6c6.1,7.5,6,16,3.9,24.8c-0.4,1.4-0.8,2.7-1.3,4c-2.5,6.4-5.3,7-10.3,2
	c-4.2-4.2-7.6-9-11.1-13.8c-6.1-8.3-12.1-16.6-18-25C850.5,288.1,849.6,287.5,849.7,286.3z"/>
<path class="st0" d="M449.5,293.2c-5.5-5.3-11.6-9.1-19.4-10c-6.6-0.8-12.7,0.8-18.6,3.4c-1.9,0.9-3.3,1-5.2-0.5
	c-2.6-1.9-5.4-3.6-8.2-5.2c7.1-8.1,15.6-13.7,26.4-14.4c12.8-0.9,22.1,5.5,28.9,15.8c8.4,12.6,10.7,26.7,10.2,41.5
	c-0.1,2.6-0.4,5.2-0.9,7.7c-0.1-7-1-14-2.7-20.9c-3-12.1-7.6-23.5-17.7-31.6c-9.1-7.2-21.9-7.7-31.5-1.1c16.2-2.7,30,0,39.3,14.6
	C449.9,292.9,449.7,293.1,449.5,293.2z"/>
<path class="st0" d="M307.9,626.3c0.4-13.5-5.2-24.9-12-35.9c-5.6-9.1-9.7-18.7-9.1-29.7c0.2-3.2,0.7-6.4,1.6-9.5
	c5.8,12.3,14.4,21.7,21.1,32.4C318.7,598.2,315.6,612.3,307.9,626.3z"/>
<path class="st0" d="M943.6,551.1c3.2,13.3,0.8,25.1-5.7,36.2c-4.6,7.9-9.7,15.7-12,24.8c-1.2,4.9-1.3,9.8-1.3,15.2
	c-8.7-14-10.7-29.2-3.2-42c2.6-4.3,5.4-8.4,8.4-12.5C934.8,566,939.6,559.2,943.6,551.1z"/>
<path class="st0" d="M768.6,327.6c-0.8-13.9,0.4-27.5,7-40.1c5.4-10.5,13.1-18.5,25.3-20.6c8.6-1.5,16.2,1.1,23.3,5.6
	c3.6,2.4,6.9,5.2,9.8,8.4c-3.3,2.1-6.5,4.2-9.7,6.2c-1,0.7-1.9,0.3-2.9-0.1c-13.7-6.4-26.3-5.2-37.8,5l-0.5-0.8
	c5.6-8.4,13.7-12.7,23.5-13.8c4.2-0.5,8.4-0.4,12.6,0.4c0.6,0.3,1.3,0.3,1.8-0.1l-1.2-0.6c-12.7-7.1-27.2-3.8-36.5,8.7
	c-8.9,11.9-12.4,25.6-13.3,40.2L768.6,327.6z"/>
<path class="st0" d="M372.6,314c5.4-7.3,10.8-14.7,16.2-22.1c0.6-0.8,1.1-2.2,2.3-1.5c2,1.1,3.8,2.6,5.4,4.3
	c0.9,1.1-1.1,1.7-1.9,2.4c-5.7,4.9-11.4,9.7-17.1,14.4c-1.3,1.1-2.8,2.1-4.1,3.1L372.6,314z"/>
<path class="st0" d="M508,210.5c1.9-5-0.2-9-2.7-13c-0.6-1-1.1-2-1.4-3.1c-0.6-2.2,0.8-3.6,2.4-4.7c2-1.4,2.7,0.7,3.6,1.6
	C514.9,196.6,514.2,204.7,508,210.5z"/>
<path class="st0" d="M723.2,210.3c-5.3-6.5-5.9-14-1.2-19.1c0.8-0.9,1.6-3,3.6-1.5c1.7,1.3,3.3,2.7,2.4,5.1c-0.6,1.4-1.3,2.8-2.2,4
	c-2.3,3.4-2.6,7.1-2.1,11L723.2,210.3z"/>
<path class="st6" d="M723.2,210.3l0.5-0.5"/>
<path class="st0" d="M907.4,680.8c12.3,11.5,20.9,26.4,24.9,42.7c2,8,3.1,16.1,1.8,24.5c-0.1,1.9-1.4,3.5-3.2,4
	c-18.1,6.5-35,3.5-51-6.6c-4.4-2.9-8.4-6.4-12-10.3c-1.4-1.4-1.4-2.5-0.2-3.9c2.3-2.9,4.8-5.7,7.5-8.3
	C888.1,710.8,899.1,697.2,907.4,680.8z"/>
<path class="st0" d="M324.4,680.6c5,9.7,11,18.8,18,27.2c5.9,7.2,13,13.2,19.1,20.2c5.4,6.2,5.4,4.9-0.3,10.1
	c-17.1,15.8-36.7,21.7-59.5,14.2c-2.8-0.9-3.8-2.5-4-5.2C296.2,720.8,306.5,699.4,324.4,680.6z"/>
<path class="st0" d="M876.3,903.8c-23.2,19.1-48.8,33.5-78.7,38.5c-17,2.8-33.8,2-49.7-5.5c-21.4-10.1-32.6-28.1-38.1-50.3
	c-0.6-2.4-1.1-4.8-1.5-7.2c-0.3-2-0.5-4.1-0.6-6.2c4.1,8.5,8.3,16.9,13.9,24.6c12.9,17.8,29.9,29,51.8,32.2c16,2.3,31.8,0,47.3-4
	c18.4-4.8,35.7-12.2,52.7-20.7L876.3,903.8z"/>
<path class="st0" d="M356.8,904.4c9.5,4.6,19,9.2,28.8,13c18,7.1,36.4,12.6,55.7,13.3c32.9,1.3,57.6-12.7,74.3-41
	c3-5,5.5-10.3,8.3-15.5c-0.4,7.3-1.9,14.5-4.4,21.4c-8.8,25.3-25.9,41.5-52.4,46.7c-17,3.3-33.7,1-50.1-4
	c-21.9-6.8-41.4-18.2-59.5-32.2c-0.4-0.3-0.8-0.6-1.3-0.9L356.8,904.4z"/>
<path class="st0" d="M859.8,747.5c8.3,10.7,20.1,18.1,33.3,21.1c11.3,2.5,23,2.8,34.4,0.7c3.5-0.6,4.6,0.2,4,3.7
	c-0.7,4.1-1.2,8.2-1.5,12.2c-0.2,1.6-1.1,2.2-2.3,2.8c-16.8,8.6-34.2,9.6-51.7,2.6c-14.8-6-20.5-20.6-18.3-35
	C858.2,753,858.3,750.2,859.8,747.5z"/>
<path class="st0" d="M372.4,747.3c2.3,6.7,2.9,14,1.6,21c-2.4,12.3-10.1,20.4-22,23.9c-15.8,4.7-31.3,3.9-46.4-3.4
	c-2.4-1-4-3.3-4-5.9c-0.2-3.6-0.6-7.2-1.2-10.7c-0.7-3.2,0.5-3.5,3-3c4.8,0.9,9.7,1.4,14.5,1.5C339.4,771,358.2,765.1,372.4,747.3z"
	/>
<path class="st0" d="M861.9,726.6c-9.8-17.3-6.8-38.8,6.9-51.6c9.8-9.1,21.8-6.1,31.1,0c1.9,1.3,0.2,2.6-0.3,3.6
	c-5.7,10.7-12.7,20.6-20.7,29.6C873.5,714.4,867.8,720.3,861.9,726.6z"/>
<path class="st0" d="M370,726.5c-14-14.7-28.1-29.5-37.7-47.7c-1.4-2.6-0.9-3.6,1.4-4.9c11.2-6.4,21.7-6.4,29.5,1.2
	C376.6,688.3,380.4,709.8,370,726.5z"/>
<path class="st0" d="M773.5,837.8c-6.7,6.1-14.5,5.8-19-0.1c-1.3-1.6-1.8-2.9-0.1-4.6s3.3-2,5.1-0.6c1.3,1,2.7,2,3.9,3.1
	C766.1,838,769.4,838.3,773.5,837.8z"/>
<path class="st0" d="M459.6,837.4c4.8,2,8-0.9,11.2-3.6s5.4-2.7,7.4,0.1c0.6,0.6,0.8,1.6,0.3,2.4c-1.8,3.5-5.4,5.8-9.3,5.9
	c-3.8,0.4-7.5-1.1-10-3.8C459.1,838.3,459.4,837.7,459.6,837.4L459.6,837.4z"/>
<path class="st7" d="M586.3,467.1c5.8,0,11.5-0.2,17.2,0c19.2,0.6,38.2,3,56.5,9.5c32.5,7.8,54.3,26.4,64.6,62.2
	c11.1,24.2,13.9,49.7,11.6,75.9c-2.2,25.1-9.9,48.5-25,68.8c-19.3,26.1-45.2,41-77.4,45.4c-10.2,1.4-20.5,1.5-30.8,1.4
	c-0.9,0.2-1.9-0.2-2.4-1c3.4-0.9,6.6-0.5,9.8-0.4c23.2,0.5,43.9-7,62.4-20.2c24.2-17.3,39.5-41.1,46.2-70
	c7.5-32.5,6.3-64.8-5.9-96.1c-15-38.7-43.2-61.8-83.7-70c-13-2.6-26.2-4-39.5-4C588.7,468.5,587.4,468.7,586.3,467.1z"/>
<path class="st8" d="M534.5,599.1c0,41.4,0,82.9,0.1,124.3c0,3.6-0.6,4.9-4.5,4.7c-7.5-0.3-7.5-0.1-7.5-7.8
	c0-82.1,0-164.2-0.1-246.3c0-4,1.1-4.9,4.9-4.8c7.2,0.3,7.2,0.1,7.2,7.4C534.5,517.5,534.5,558.3,534.5,599.1z"/>
<path class="st0" d="M512,1062.4c0.1,14.6-13.4,29.9-31.6,31.8c-4.8,0.4-9.5-0.5-13.9-2.5c-19.2-8.2-31.2-34.2-25-54.2
	c3.8-12.2,15.7-22.2,28.2-22.8c10.5-0.5,19.4,4.2,27.1,11C506.6,1034.3,512,1045.2,512,1062.4z"/>
<path class="st0" d="M824.2,1055.5h-21.3l10.6-28.4L824.2,1055.5z"/>
<path class="st0" d="M612.3,1133.1c15-7.3,27.4-18.6,43.9-22.2c8-1.8,16.7,1.7,20.6,8.6c-10.3-4.6-19.2-1.1-27.9,3.7
	c-6.5,3.6-12.5,8-19.4,10.9C623.9,1136.4,618.3,1137.6,612.3,1133.1z"/>
<path class="st0" d="M670.9,1137.9l0.4-3.3c2.1,1.3,4.2,2.2,6.8,1c-3,7-7.7,10.4-13.5,9.9c-4.8-0.5-8.8-5-8-9c0.8-3.9,4-6.7,7.4-6.5
	S670,1133.1,670.9,1137.9z"/>
<path class="st0" d="M633.4,988c-4.4,3.4-8.8,3.3-13.5,2c-5.5-1.5-10.3-4.6-15.1-7.5s-9.8-6.1-15.2-8.2c-6.7-2.5-13.5-3.9-20.5,0.2
	c2.2-6.3,12.2-10,18.1-9.2c7.1,0.9,13.5,3.7,19.7,7.2C615.7,977.5,624.4,982.7,633.4,988z"/>
<path class="st0" d="M567.7,990.5c1.8-0.1,3.6,0.6,5.1-0.3c3.3-2,0.5,3.3,2.9,2c0.3-4.2,2.6-7.3,6-7.8c2.7-0.3,6.3,2.3,7.3,5.3
	c1.2,3.6-0.5,7.2-4.3,9.3c-4.2,2.3-9,1.3-12.9-2.5C570,994.9,568.6,992.8,567.7,990.5z"/>
<path class="st0" d="M629.8,977.5c-2.2,1.2-4.2,1.1-5.8-0.8c-1.5-1.5-1.7-3.9-0.5-5.7c1.3-2.2,3.9-3.3,6.3-2.7
	c6.1,1.2,10,10.6,6.8,15.9c-0.9,1.4-1.6,1.3-2.8,0.6c-2.4-1.5-4.8-2.9-7.6-4.5c1.5-0.7,4.6-1.9,5.3-3.3c0.3-0.3-0.8,0.9-0.6,0.6
	c1.2-0.9,1.6-2.4,1.1-3.7l-1.9,3.3C630.1,977.1,629.9,977.3,629.8,977.5z"/>
<path class="st9" d="M819.7,277.1l1.2,0.6c-0.5,0.4-1.2,0.4-1.8,0.1L819.7,277.1z"/>
<path class="st1" d="M614.6,1122.2c-1.4-1-0.4-2.3-0.4-3.5l1,3.1L614.6,1122.2z"/>
<path class="st1" d="M615.3,1121.8c0.2,0.1,0.4,0.3,0.5,0.5l-0.5,0.7l-0.7-0.9L615.3,1121.8z"/>
<path class="st1" d="M630.2,977.1l1.9-3.3c0.5,1.4,0,2.9-1.1,3.7L630.2,977.1z"/>
<path class="st1" d="M631,977.5l-0.3,0.3c-2.3,1.8-1.5,0.7-0.9-0.3c0.1-0.2,0.2-0.3,0.4-0.4L631,977.5z"/>
</svg>
